<svg width="378" height="378" viewBox="0 0 378 378" fill="none" xmlns="http://www.w3.org/2000/svg">
<mask id="mask0_1_7" style="mask-type:luminance" maskUnits="userSpaceOnUse" x="0" y="0" width="378" height="378">
<path d="M0.630188 0.630207H377.63V377.63H0.630188V0.630207Z" fill="white"/>
</mask>
<g mask="url(#mask0_1_7)">
<path d="M189.13 0.630207C85.2083 0.630207 0.630188 85.2083 0.630188 189.13C0.630188 293.052 85.2083 377.63 189.13 377.63C293.052 377.63 377.63 293.052 377.63 189.13C377.63 85.1406 293.052 0.630207 189.13 0.630207ZM10.9375 189.13C10.9375 90.8594 90.8594 10.9375 189.13 10.9375C276.464 10.9375 349.323 74.0521 364.427 157.078C342.193 158.563 301.453 176 290.651 181.224C289.453 181.786 287.901 182.568 286.135 183.484C286.135 183.271 286.135 183.13 286.135 182.917C286.135 129.474 242.646 85.9844 189.203 85.9844C135.76 85.9844 92.2708 129.474 92.2708 182.917C92.2708 183.979 92.2708 184.964 92.3385 186.026C81.75 189.344 70.526 193.578 59.5104 198.521C35.2969 209.182 19.8333 212.5 12.776 213.49C11.5052 205.51 10.9375 197.391 10.9375 189.13ZM275.755 182.917C275.755 184.896 275.687 186.802 275.547 188.776C267 193.083 255.635 198.734 242.646 205.089C241.302 204.521 239.891 203.958 238.552 203.391C181.786 180.026 154.396 177.339 133.219 177.906C124.818 178.12 114.156 180.026 102.505 183.13C102.505 183.057 102.505 183.057 102.505 182.99C102.505 135.193 141.333 96.3646 189.13 96.3646C236.854 96.2917 275.755 135.125 275.755 182.917ZM14.3281 223.656C22.4479 222.453 38.7552 218.854 63.5364 207.911C89.375 196.333 116.839 188.568 133.5 188.073C152.984 187.505 178.26 189.979 230.151 211.016C204.453 223.37 174.797 236.995 149.88 246.458C104.766 263.615 41.5104 262.979 26.7552 262.552C21.1771 250.271 17.0104 237.208 14.3281 223.656ZM189.13 367.255C164.422 367.255 140.911 362.172 119.448 353.063C125.594 348.828 134.062 342.26 141.193 334.495C153.62 320.938 202.12 285.427 248.578 291.359C283.521 295.807 310.422 303.151 322.635 306.891C289.948 343.885 242.224 367.255 189.13 367.255ZM329.766 298.276C319.88 295.099 290.443 286.344 249.849 281.12C199.297 274.625 146.911 312.891 133.5 327.505C124.745 337.109 113.307 344.802 108.437 347.906C75.8906 331.318 49.1302 305.057 31.9062 272.932C33.9531 272.932 36.2812 273.005 38.8958 273.005C64.1719 273.005 114.437 270.885 153.479 256.057C181.786 245.255 215.109 229.797 242.927 216.313C261.141 224.005 278.37 231.771 293.901 238.833C318.328 249.917 338.38 258.953 351.437 262.625C345.578 275.333 338.307 287.333 329.766 298.276ZM298.135 229.375C284.932 223.443 270.464 216.875 255.214 210.313C264.745 205.651 273.286 201.344 280.417 197.813C286.911 194.568 291.995 192.026 295.099 190.542C315.505 180.802 350.307 167.88 365.984 167.318C366.828 174.448 367.323 181.719 367.323 189.13C367.323 211.651 363.089 233.188 355.464 253.021C343.531 249.917 322.281 240.318 298.135 229.375Z" fill="#CC6510"/>
</g>
</svg>
