<svg width="500" height="500" viewBox="0 0 500 500" fill="none" xmlns="http://www.w3.org/2000/svg">
<path d="M443.08 49.6599H343.22V153.75H443.08V49.6599Z" fill="#E0E0E0"/>
<path d="M436.32 49.6599H336.46V153.75H436.32V49.6599Z" fill="#EBEBEB"/>
<path d="M422.89 63.6599H349.88V139.77H422.89V63.6599Z" fill="#FAFAFA"/>
<path d="M349.88 140.27C349.343 141.018 348.733 141.712 348.06 142.34C346.88 143.56 345.24 145.22 343.4 147.03C341.56 148.84 339.88 150.46 338.64 151.61C338.009 152.272 337.312 152.869 336.56 153.39C337.092 152.644 337.699 151.954 338.37 151.33C339.55 150.11 341.19 148.44 343.03 146.63C344.87 144.82 346.56 143.2 347.8 142.04C348.429 141.379 349.127 140.785 349.88 140.27Z" fill="#E0E0E0"/>
<path d="M422.89 140.08C423.637 140.623 424.33 141.236 424.96 141.91C426.18 143.08 427.84 144.72 429.65 146.56C431.46 148.4 433.08 150.08 434.23 151.32C434.897 151.95 435.494 152.651 436.01 153.41C435.269 152.868 434.579 152.259 433.95 151.59C432.73 150.42 431.06 148.77 429.25 146.93C427.44 145.09 425.82 143.4 424.66 142.16C423.998 141.531 423.405 140.834 422.89 140.08Z" fill="#E0E0E0"/>
<path d="M422.69 63.86C423.227 63.1118 423.837 62.4184 424.51 61.79C425.69 60.57 427.33 58.91 429.17 57.1C431.01 55.29 432.69 53.67 433.93 52.52C434.558 51.8583 435.252 51.262 436 50.74C435.471 51.4885 434.864 52.1791 434.19 52.8C433.01 54.02 431.37 55.69 429.53 57.5C427.69 59.31 426 60.93 424.76 62.09C424.134 62.7508 423.44 63.3441 422.69 63.86Z" fill="#E0E0E0"/>
<path d="M349.68 64.05C348.93 63.5111 348.237 62.898 347.61 62.22C346.39 61.05 344.73 59.41 342.92 57.57C341.11 55.73 339.49 54.05 338.34 52.81C337.678 52.1787 337.081 51.4818 336.56 50.73C337.306 51.2623 337.996 51.8687 338.62 52.54C339.84 53.71 341.51 55.36 343.32 57.2C345.13 59.04 346.75 60.73 347.91 61.97C348.571 62.5992 349.165 63.2964 349.68 64.05Z" fill="#E0E0E0"/>
<path d="M422.69 139.76C422.69 139.76 422.69 139.64 422.69 139.4C422.69 139.16 422.69 138.79 422.69 138.34C422.69 137.387 422.69 136.017 422.69 134.23C422.69 130.63 422.69 125.39 422.63 118.73C422.63 105.4 422.56 86.4 422.51 63.66L422.75 63.9H349.95L350.22 63.63C350.22 91.56 350.22 117.7 350.22 139.73L349.98 139.5L402.71 139.62L417.52 139.68H421.43H422.79H422.47H421.47H417.6L402.85 139.74L349.97 139.86H349.73V139.62C349.73 117.62 349.73 91.45 349.73 63.52V63.24H350.01H422.81H423.05V63.48C423 86.29 422.96 105.34 422.93 118.7C422.93 125.34 422.88 130.57 422.86 134.15C422.86 135.92 422.86 137.27 422.86 138.21C422.86 138.65 422.86 139 422.86 139.21C422.86 139.42 422.69 139.76 422.69 139.76Z" fill="#E0E0E0"/>
<path d="M369.15 95.45C369.15 95.45 367.59 114.3 388 114.3C388 104.24 379.7 96.3 369.15 95.45Z" fill="#EBEBEB"/>
<path d="M406.49 95.4699C406.49 95.4699 387.65 93.8999 387.65 114.31C397.7 114.31 405.64 106 406.49 95.4699Z" fill="#EBEBEB"/>
<path d="M387.09 85.15C387.09 85.15 371.69 98.97 387.93 114.3C395.48 106.29 394.84 93.75 387.09 85.15Z" fill="#E0E0E0"/>
<path d="M481.82 469.67C481.82 469.67 481.6 469.67 481.17 469.55C480.74 469.43 480.11 469.34 479.27 469.23C476.812 468.973 474.34 468.883 471.87 468.96C470.26 468.96 468.46 468.96 466.49 468.82C464.341 468.673 462.229 468.191 460.23 467.39C457.904 466.448 455.948 464.773 454.66 462.62C453.949 461.44 453.534 460.105 453.45 458.73C453.342 457.26 453.76 455.8 454.63 454.61C455.535 453.363 456.819 452.441 458.29 451.98C459.063 451.72 459.889 451.653 460.694 451.786C461.5 451.918 462.26 452.246 462.91 452.74C463.558 453.279 464.087 453.947 464.464 454.701C464.841 455.454 465.057 456.278 465.1 457.12C465.208 458.856 464.749 460.579 463.79 462.03C462.822 463.508 461.588 464.793 460.15 465.82C458.703 466.898 457.119 467.779 455.44 468.44C451.926 469.843 448.116 470.342 444.36 469.89C440.391 469.455 436.631 467.885 433.53 465.37C430.328 462.715 427.929 459.221 426.6 455.28C425.166 451.207 425.009 446.794 426.15 442.63C426.754 440.504 427.773 438.519 429.15 436.79C430.554 435.007 432.443 433.667 434.59 432.93C436.757 432.225 439.092 432.225 441.26 432.93C442.337 433.272 443.33 433.838 444.173 434.591C445.016 435.344 445.69 436.267 446.15 437.3C447.018 439.342 447.177 441.617 446.6 443.76C446.096 445.873 445 447.799 443.44 449.31C440.31 452.31 436.01 453.4 432.01 453.5C428.05 453.561 424.118 452.837 420.44 451.37C413.678 448.607 407.756 444.126 403.26 438.37C399.329 433.409 396.285 427.807 394.26 421.81C392.571 416.887 391.307 411.829 390.48 406.69C389.73 402.16 389.31 398.23 389 395.02C388.69 391.81 388.51 389.31 388.38 387.62C388.33 386.79 388.29 386.15 388.26 385.69C388.249 385.47 388.249 385.25 388.26 385.03C388.26 385.03 388.26 385.25 388.35 385.69C388.44 386.13 388.46 386.78 388.54 387.61C388.72 389.33 388.96 391.81 389.28 395C389.6 398.19 390.1 402.12 390.88 406.63C391.742 411.729 393.03 416.746 394.73 421.63C396.771 427.562 399.815 433.099 403.73 438C408.174 443.665 414.015 448.076 420.68 450.8C424.284 452.211 428.13 452.904 432 452.84C435.9 452.73 440 451.64 443 448.84C444.473 447.415 445.513 445.602 446 443.61C446.538 441.62 446.394 439.508 445.59 437.61C445.163 436.667 444.542 435.823 443.769 435.134C442.995 434.445 442.086 433.926 441.1 433.61C439.072 432.95 436.887 432.95 434.86 433.61C432.84 434.299 431.065 435.56 429.75 437.24C428.431 438.897 427.455 440.801 426.88 442.84C425.774 446.871 425.921 451.144 427.3 455.09C428.593 458.911 430.919 462.3 434.02 464.88C437.016 467.325 440.656 468.853 444.5 469.28C448.152 469.729 451.858 469.254 455.28 467.9C458.539 466.714 461.362 464.571 463.38 461.75C464.279 460.401 464.717 458.798 464.63 457.18C464.587 456.412 464.387 455.661 464.043 454.973C463.699 454.285 463.218 453.675 462.63 453.18C462.044 452.74 461.361 452.449 460.638 452.331C459.916 452.212 459.175 452.27 458.48 452.5C457.109 452.918 455.91 453.766 455.06 454.92C454.253 456.024 453.861 457.376 453.95 458.74C454.004 460.026 454.364 461.281 455 462.4C456.229 464.489 458.108 466.118 460.35 467.04C462.305 467.841 464.373 468.331 466.48 468.49C468.42 468.68 470.22 468.68 471.83 468.7C474.31 468.638 476.791 468.771 479.25 469.1C480.122 469.211 480.982 469.402 481.82 469.67Z" fill="#E0E0E0"/>
<path d="M355.56 385.62L334.66 469.81H343.13L364.82 385.62H355.56Z" fill="#F5F5F5"/>
<path d="M416.14 385.62L437.04 469.81H428.58L406.88 385.62H416.14Z" fill="#F5F5F5"/>
<path d="M389.76 362.72H379.91V469.81H389.76V362.72Z" fill="#F5F5F5"/>
<path d="M454.13 276.84H315.07V365.93H454.13V276.84Z" fill="#E0E0E0"/>
<path d="M419.54 384.25H349.74V392.85H419.54V384.25Z" fill="#F5F5F5"/>
<path d="M324.31 354.31C324.39 354.849 324.423 355.395 324.41 355.94H324.22C324.07 351.58 323.97 337.14 323.97 320.04C323.97 309.71 324.04 300.37 324.07 293.5C324.07 290.17 324.15 287.45 324.18 285.45C324.18 284.56 324.23 283.84 324.24 283.27C324.234 283.011 324.257 282.753 324.31 282.5C324.369 282.752 324.392 283.011 324.38 283.27C324.38 283.84 324.38 284.56 324.45 285.45C324.45 287.45 324.51 290.17 324.55 293.5C324.55 300.37 324.62 309.71 324.65 320.04C324.65 337.14 324.55 351.58 324.41 355.94H324.22C324.208 355.395 324.238 354.85 324.31 354.31Z" fill="#F5F5F5"/>
<path d="M334.66 354.31C334.74 354.849 334.773 355.395 334.76 355.94H334.57C334.42 351.58 334.32 337.14 334.32 320.04C334.32 309.71 334.39 300.37 334.42 293.5C334.42 290.17 334.5 287.45 334.53 285.45C334.53 284.56 334.58 283.84 334.59 283.27C334.584 283.011 334.607 282.753 334.66 282.5C334.719 282.752 334.742 283.011 334.73 283.27C334.73 283.84 334.73 284.56 334.8 285.45C334.8 287.45 334.86 290.17 334.9 293.5C334.9 300.37 334.97 309.71 335 320.04C335 337.14 334.9 351.58 334.76 355.94H334.57C334.558 355.395 334.588 354.85 334.66 354.31Z" fill="#F5F5F5"/>
<path d="M345 354.31C345.08 354.849 345.113 355.395 345.1 355.94H344.91C344.76 351.58 344.66 337.14 344.66 320.04C344.66 309.71 344.73 300.37 344.76 293.5C344.76 290.17 344.84 287.45 344.87 285.45C344.87 284.56 344.92 283.84 344.93 283.27C344.924 283.011 344.947 282.753 345 282.5C345.059 282.752 345.082 283.011 345.07 283.27C345.07 283.84 345.07 284.56 345.14 285.45C345.14 287.45 345.2 290.17 345.24 293.5C345.24 300.37 345.31 309.71 345.34 320.04C345.34 337.14 345.24 351.58 345.1 355.94H344.91C344.898 355.395 344.928 354.85 345 354.31Z" fill="#F5F5F5"/>
<path d="M355.36 354.31C355.44 354.849 355.473 355.395 355.46 355.94H355.27C355.12 351.58 355.02 337.14 355.02 320.04C355.02 309.71 355.09 300.37 355.12 293.5C355.12 290.17 355.2 287.45 355.23 285.45C355.23 284.56 355.23 283.84 355.29 283.27C355.284 283.011 355.307 282.753 355.36 282.5C355.419 282.752 355.443 283.011 355.43 283.27C355.43 283.84 355.43 284.56 355.49 285.45C355.49 287.45 355.56 290.17 355.6 293.5C355.6 300.37 355.67 309.71 355.7 320.04C355.7 337.14 355.6 351.58 355.46 355.94H355.27C355.258 355.395 355.288 354.85 355.36 354.31Z" fill="#F5F5F5"/>
<path d="M365.71 354.31C365.79 354.849 365.823 355.395 365.81 355.94H365.62C365.47 351.58 365.37 337.14 365.37 320.04C365.37 309.71 365.44 300.37 365.47 293.5C365.47 290.17 365.55 287.45 365.58 285.45C365.58 284.56 365.63 283.84 365.64 283.27C365.634 283.011 365.657 282.753 365.71 282.5C365.769 282.752 365.792 283.011 365.78 283.27C365.78 283.84 365.78 284.56 365.85 285.45C365.85 287.45 365.91 290.17 365.95 293.5C365.95 300.37 366.02 309.71 366.05 320.04C366.05 337.14 365.95 351.58 365.81 355.94H365.62C365.608 355.395 365.638 354.85 365.71 354.31Z" fill="#F5F5F5"/>
<path d="M376.06 354.31C376.14 354.849 376.173 355.395 376.16 355.94H376C375.85 351.58 375.75 337.14 375.75 320.04C375.75 309.71 375.82 300.37 375.85 293.5C375.85 290.17 375.93 287.45 375.96 285.45C375.96 284.56 376.01 283.84 376.02 283.27C376.014 283.011 376.037 282.753 376.09 282.5C376.149 282.752 376.173 283.011 376.16 283.27C376.16 283.84 376.16 284.56 376.23 285.45C376.23 287.45 376.29 290.17 376.33 293.5C376.33 300.37 376.4 309.71 376.43 320.04C376.43 337.14 376.33 351.58 376.19 355.94H376C375.978 355.396 375.998 354.851 376.06 354.31Z" fill="#F5F5F5"/>
<path d="M386.41 354.31C386.49 354.849 386.523 355.395 386.51 355.94H386.32C386.17 351.58 386.07 337.14 386.07 320.04C386.07 309.71 386.14 300.37 386.17 293.5C386.17 290.17 386.25 287.45 386.28 285.45C386.28 284.56 386.33 283.84 386.34 283.27C386.334 283.011 386.357 282.753 386.41 282.5C386.469 282.752 386.492 283.011 386.48 283.27C386.48 283.84 386.48 284.56 386.55 285.45C386.55 287.45 386.61 290.17 386.65 293.5C386.65 300.37 386.72 309.71 386.75 320.04C386.75 337.14 386.65 351.58 386.51 355.94H386.32C386.308 355.395 386.338 354.85 386.41 354.31Z" fill="#F5F5F5"/>
<path d="M396.76 354.31C396.84 354.849 396.873 355.395 396.86 355.94H396.67C396.52 351.58 396.42 337.14 396.42 320.04C396.42 309.71 396.49 300.37 396.52 293.5C396.52 290.17 396.6 287.45 396.63 285.45C396.63 284.56 396.68 283.84 396.69 283.27C396.684 283.011 396.707 282.753 396.76 282.5C396.819 282.752 396.842 283.011 396.83 283.27C396.83 283.84 396.83 284.56 396.9 285.45C396.9 287.45 396.96 290.17 397 293.5C397 300.37 397.07 309.71 397.1 320.04C397.1 337.14 397 351.58 396.86 355.94H396.67C396.658 355.395 396.688 354.85 396.76 354.31Z" fill="#F5F5F5"/>
<path d="M407.11 354.31C407.19 354.849 407.223 355.395 407.21 355.94H407C406.85 351.58 406.75 337.14 406.75 320.04C406.75 309.71 406.82 300.37 406.85 293.5C406.85 290.17 406.93 287.45 406.96 285.45C406.96 284.56 406.96 283.84 407.02 283.27C407.014 283.011 407.037 282.753 407.09 282.5C407.149 282.752 407.173 283.011 407.16 283.27C407.16 283.84 407.16 284.56 407.23 285.45C407.23 287.45 407.29 290.17 407.33 293.5C407.33 300.37 407.4 309.71 407.43 320.04C407.43 337.14 407.33 351.58 407.19 355.94H407C406.995 355.395 407.031 354.85 407.11 354.31Z" fill="#F5F5F5"/>
<path d="M417.46 354.31C417.54 354.849 417.573 355.395 417.56 355.94H417.37C417.22 351.58 417.12 337.14 417.12 320.04C417.12 309.71 417.19 300.37 417.22 293.5C417.22 290.17 417.3 287.45 417.33 285.45C417.33 284.56 417.38 283.84 417.39 283.27C417.384 283.011 417.407 282.753 417.46 282.5C417.519 282.752 417.542 283.011 417.53 283.27C417.53 283.84 417.53 284.56 417.6 285.45C417.6 287.45 417.66 290.17 417.7 293.5C417.7 300.37 417.77 309.71 417.8 320.04C417.8 337.14 417.7 351.58 417.56 355.94H417.37C417.358 355.395 417.388 354.85 417.46 354.31Z" fill="#F5F5F5"/>
<path d="M427.81 354.31C427.89 354.849 427.923 355.395 427.91 355.94H427.72C427.57 351.58 427.47 337.14 427.47 320.04C427.47 309.71 427.54 300.37 427.57 293.5C427.57 290.17 427.65 287.45 427.68 285.45C427.68 284.56 427.73 283.84 427.74 283.27C427.74 283.012 427.764 282.754 427.81 282.5C427.869 282.752 427.892 283.011 427.88 283.27C427.88 283.84 427.88 284.56 427.94 285.45C427.94 287.45 428.01 290.17 428.05 293.5C428.05 300.37 428.12 309.71 428.15 320.04C428.15 337.14 428.05 351.58 427.91 355.94H427.72C427.708 355.395 427.738 354.85 427.81 354.31Z" fill="#F5F5F5"/>
<path d="M438.16 354.31C438.24 354.849 438.273 355.395 438.26 355.94H438.07C437.92 351.58 437.82 337.14 437.82 320.04C437.82 309.71 437.89 300.37 437.92 293.5C437.92 290.17 438 287.45 438.03 285.45C438.03 284.56 438.08 283.84 438.09 283.27C438.084 283.011 438.107 282.753 438.16 282.5C438.219 282.752 438.242 283.011 438.23 283.27C438.23 283.84 438.23 284.56 438.3 285.45C438.3 287.45 438.36 290.17 438.4 293.5C438.4 300.37 438.47 309.71 438.5 320.04C438.5 337.14 438.4 351.58 438.26 355.94H438.07C438.058 355.395 438.088 354.85 438.16 354.31Z" fill="#F5F5F5"/>
<path d="M448.51 354.31C448.59 354.849 448.623 355.395 448.61 355.94H448.42C448.27 351.58 448.17 337.14 448.17 320.04C448.17 309.71 448.24 300.37 448.27 293.5C448.27 290.17 448.35 287.45 448.38 285.45C448.38 284.56 448.43 283.84 448.44 283.27C448.434 283.011 448.457 282.753 448.51 282.5C448.569 282.752 448.592 283.011 448.58 283.27C448.58 283.84 448.58 284.56 448.65 285.45C448.65 287.45 448.71 290.17 448.75 293.5C448.75 300.37 448.82 309.71 448.85 320.04C448.85 337.14 448.75 351.58 448.61 355.94H448.42C448.408 355.395 448.438 354.85 448.51 354.31Z" fill="#F5F5F5"/>
<path d="M240.38 160.93H49.1799V166.98H240.38V160.93Z" fill="#E0E0E0"/>
<path d="M91.14 163.95H81.46V183.12H91.14V163.95Z" fill="#E0E0E0"/>
<path d="M205.94 160.93H196.26V183.13H205.94V160.93Z" fill="#E0E0E0"/>
<path d="M77.0798 120.25L83.3398 161.39H119.71L128.15 120.85L77.0798 120.25Z" fill="#EBEBEB"/>
<path d="M123.06 146.62C123.06 146.74 113.74 146.83 102.25 146.83C90.7599 146.83 81.4399 146.74 81.4399 146.62C81.4399 146.5 90.7499 146.4 102.25 146.4C113.75 146.4 123.06 146.5 123.06 146.62Z" fill="#FAFAFA"/>
<path d="M123.2 144.59C123.2 144.71 113.82 144.81 102.2 144.81C90.58 144.81 81.2 144.71 81.2 144.59C81.2 144.47 90.58 144.38 102.2 144.38C113.82 144.38 123.2 144.48 123.2 144.59Z" fill="#FAFAFA"/>
<path d="M123.13 142.31C123.13 142.43 113.75 142.52 102.18 142.52C90.6099 142.52 81.1799 142.43 81.1799 142.31C81.1799 142.19 90.5499 142.1 102.18 142.1C113.81 142.1 123.13 142.19 123.13 142.31Z" fill="#FAFAFA"/>
<path d="M87.52 159C87.0051 157.307 86.6305 155.574 86.4 153.82C86.0257 152.092 85.7949 150.336 85.71 148.57C86.2128 150.265 86.5839 151.997 86.82 153.75C87.1883 155.479 87.4224 157.235 87.52 159Z" fill="#FAFAFA"/>
<path d="M89.9999 158.6C89.7448 156.945 89.5945 155.275 89.5499 153.6C89.3627 151.917 89.2825 150.223 89.3099 148.53C89.7094 150.168 89.934 151.844 89.9799 153.53C90.1661 155.215 90.1728 156.914 89.9999 158.6Z" fill="#FAFAFA"/>
<path d="M94.5 158.6C93.9901 156.912 93.6551 155.176 93.5 153.42C93.2227 151.681 93.1322 149.918 93.23 148.16C93.5628 149.882 93.7965 151.621 93.93 153.37C94.2188 155.101 94.4091 156.847 94.5 158.6Z" fill="#FAFAFA"/>
<path d="M97.6698 158.82C97.3128 157.09 97.1418 155.327 97.1599 153.56C97.0331 151.796 97.0867 150.023 97.3198 148.27C97.5114 150.02 97.6016 151.78 97.5898 153.54C97.7165 155.297 97.7432 157.06 97.6698 158.82Z" fill="#FAFAFA"/>
<path d="M103.27 158.61C103 156.957 102.873 155.284 102.89 153.61C102.744 151.946 102.744 150.273 102.89 148.61C103.161 150.262 103.288 151.935 103.27 153.61C103.414 155.274 103.414 156.946 103.27 158.61Z" fill="#FAFAFA"/>
<path d="M107.36 158.82C107.162 157.104 107.106 155.375 107.19 153.65C107.136 151.926 107.22 150.201 107.44 148.49C107.644 150.205 107.704 151.935 107.62 153.66C107.674 155.384 107.587 157.11 107.36 158.82Z" fill="#FAFAFA"/>
<path d="M111.2 158.27C111.159 156.465 111.263 154.659 111.51 152.87C111.619 151.068 111.863 149.276 112.24 147.51C112.281 149.315 112.177 151.121 111.93 152.91C111.821 154.712 111.576 156.504 111.2 158.27Z" fill="#FAFAFA"/>
<path d="M116.15 157.73C116.151 156.18 116.356 154.637 116.76 153.14C117.016 151.611 117.47 150.122 118.11 148.71C117.883 150.233 117.569 151.742 117.17 153.23C116.916 154.748 116.575 156.251 116.15 157.73Z" fill="#FAFAFA"/>
<path d="M112.64 39.09C112.64 39.09 112.64 39.16 112.64 39.29C112.64 39.42 112.54 39.64 112.47 39.87L111.78 42.09C111.47 43.09 111.1 44.23 110.71 45.61C110.32 46.99 109.83 48.55 109.4 50.3C108.97 52.05 108.4 53.96 107.98 56.03C107.56 58.1 107.05 60.32 106.58 62.65C105.71 67.34 104.91 72.53 104.35 78C103.79 83.47 103.57 88.72 103.5 93.49C103.5 95.88 103.5 98.15 103.57 100.27C103.64 102.39 103.72 104.36 103.82 106.16C103.92 107.96 104.07 109.59 104.18 111.02C104.29 112.45 104.42 113.68 104.53 114.68C104.64 115.68 104.71 116.43 104.77 116.99C104.77 117.23 104.77 117.43 104.77 117.59C104.779 117.66 104.779 117.73 104.77 117.8C104.74 117.737 104.723 117.669 104.72 117.6C104.72 117.44 104.69 117.24 104.63 117C104.55 116.44 104.44 115.67 104.31 114.7C104.18 113.73 104.01 112.47 103.88 111.04C103.75 109.61 103.56 107.99 103.46 106.18C103.36 104.37 103.21 102.4 103.15 100.28C103.09 98.16 103.06 95.88 103.05 93.49C103.1 88.71 103.33 83.49 103.87 77.96C104.41 72.43 105.24 67.27 106.13 62.58C106.62 60.24 107.06 58.01 107.58 55.95C108.1 53.89 108.58 51.95 109.05 50.22C109.52 48.49 110.05 46.92 110.42 45.54C110.79 44.16 111.22 42.99 111.56 42.04C111.9 41.09 112.14 40.38 112.33 39.84C112.41 39.61 112.48 39.43 112.54 39.28C112.568 39.2138 112.601 39.1502 112.64 39.09Z" fill="#EBEBEB"/>
<path d="M106.08 64.5599C107.08 61.5979 109.077 59.0745 111.73 57.4199C112.146 57.0882 112.638 56.8645 113.161 56.7685C113.684 56.6726 114.223 56.7074 114.73 56.8699C116 57.4799 116.11 59.2699 115.73 60.6199C115.078 62.9258 113.615 64.9183 111.61 66.2299C109.833 67.5387 107.615 68.0988 105.43 67.7899" fill="#EBEBEB"/>
<path d="M103.87 81.7599C104.81 78.2099 107.64 73.1599 110.58 70.9599C111.029 70.5883 111.55 70.3126 112.11 70.1499C112.39 70.0699 112.684 70.0599 112.969 70.121C113.253 70.182 113.518 70.3122 113.74 70.4999C113.991 70.8324 114.157 71.2218 114.221 71.6335C114.286 72.0452 114.247 72.4665 114.11 72.8599C113.507 75.4496 112.196 77.8204 110.322 79.7067C108.448 81.5929 106.086 82.9203 103.5 83.5399" fill="#EBEBEB"/>
<path d="M103.26 96.8999C104.711 93.512 107.037 90.5713 110 88.3799C110.319 88.0881 110.692 87.8634 111.1 87.719C111.507 87.5747 111.939 87.5138 112.37 87.5399C113.65 87.7699 114.23 89.3399 114.12 90.6399C113.89 93.3199 111.84 95.4699 109.73 97.1299C107.791 98.4695 105.687 99.5519 103.47 100.35" fill="#EBEBEB"/>
<path d="M103.6 107.78C105.016 105.195 106.987 102.955 109.37 101.22C109.875 100.831 110.464 100.564 111.09 100.44C111.406 100.384 111.73 100.415 112.03 100.53C112.329 100.644 112.592 100.838 112.79 101.09C113.37 101.94 112.79 103.09 112.2 103.9C110.163 106.719 107.286 108.82 103.98 109.9" fill="#EBEBEB"/>
<path d="M103.32 103.36C100.832 100.33 98.074 97.5314 95.0799 94.9999C94.6099 94.6099 94.0199 94.1899 93.4399 94.3799C93.2199 94.4722 93.0311 94.626 92.8963 94.8229C92.7615 95.0198 92.6864 95.2514 92.6799 95.4899C92.6877 95.9546 92.7969 96.4119 92.9999 96.8299C93.9864 99.0172 95.4522 100.954 97.2888 102.499C99.1254 104.043 101.286 105.154 103.61 105.75" fill="#EBEBEB"/>
<path d="M103.58 89.1899L97.11 81.2999C96.5414 80.5077 95.829 79.8293 95.01 79.2999C94.594 79.0474 94.1166 78.9139 93.63 78.9139C93.1434 78.9139 92.666 79.0474 92.25 79.2999C91.8745 79.6076 91.5923 80.014 91.4351 80.4733C91.2779 80.9326 91.2519 81.4266 91.36 81.8999C91.5946 82.8448 92.0238 83.7303 92.62 84.4999C93.8834 86.4341 95.4818 88.1273 97.34 89.4999C99.24 90.7999 100.97 91.6499 103.25 91.3199" fill="#EBEBEB"/>
<path d="M104.48 73.25C103.221 69.4752 100.985 66.1009 97.9999 63.47C97.5277 62.9972 96.9425 62.653 96.2999 62.47C95.6341 62.4113 94.9689 62.5885 94.4206 62.9705C93.8722 63.3526 93.4755 63.9152 93.2999 64.56C93.0953 65.2752 93.042 66.0252 93.1436 66.7622C93.2452 67.4991 93.4994 68.2068 93.8899 68.84C94.6656 70.1023 95.6855 71.197 96.8899 72.06C99.0707 73.7268 101.5 75.0395 104.09 75.95" fill="#EBEBEB"/>
<path d="M107.07 59C106.44 54.43 104.07 50.62 101.3 46.92C100.72 46.14 99.9099 45.31 98.9499 45.46C98.6444 45.5244 98.3599 45.6643 98.1224 45.867C97.8848 46.0696 97.7018 46.3285 97.5899 46.62C97.3766 47.205 97.2913 47.8291 97.3399 48.45C97.4609 51.2214 98.3949 53.8959 100.026 56.1401C101.656 58.3843 103.911 60.0988 106.51 61.07" fill="#EBEBEB"/>
<path d="M108.88 51.77C108.58 49.4259 108.5 47.059 108.64 44.7C108.794 42.3256 109.612 40.0422 111 38.11C111.595 37.2807 112.408 36.6332 113.35 36.24C113.823 36.0542 114.335 35.9917 114.839 36.0581C115.343 36.1246 115.821 36.3179 116.23 36.62C116.579 36.9389 116.851 37.3337 117.025 37.774C117.198 38.2142 117.268 38.6883 117.23 39.16C117.151 40.0998 116.904 41.0177 116.5 41.87C114.78 46.02 111.9 50.61 108.9 51.77" fill="#EBEBEB"/>
<path d="M80.6799 57.22C80.7027 57.4126 80.7027 57.6073 80.6799 57.8C80.6799 58.23 80.6799 58.8 80.6799 59.47C80.6799 60.14 80.6799 61.07 80.6799 62.09C80.6799 63.11 80.6799 64.28 80.7999 65.56C80.9099 68.14 81.1599 71.2 81.5499 74.56C81.9399 77.92 82.5499 81.63 83.3399 85.48C84.1299 89.33 85.2199 93 86.1899 96.23C87.1599 99.46 88.1899 102.38 89.1299 104.78C89.5699 105.99 90.0299 107.06 90.4099 108.01C90.7899 108.96 91.1299 109.78 91.4099 110.43C91.6899 111.08 91.8899 111.57 92.0599 111.96C92.1415 112.138 92.2084 112.321 92.2599 112.51C92.1555 112.35 92.0684 112.179 91.9999 112C91.8099 111.62 91.5699 111.12 91.2699 110.5C90.9699 109.88 90.5899 109.05 90.1899 108.11C89.7899 107.17 89.2999 106.11 88.8499 104.89C87.8499 102.5 86.8499 99.6 85.8499 96.34C84.8499 93.08 83.8499 89.45 83.0599 85.59C82.2699 81.73 81.6899 78.01 81.2899 74.59C80.8899 71.17 80.6999 68.13 80.6299 65.59C80.5599 64.3 80.6299 63.13 80.5699 62.1C80.5099 61.07 80.5699 60.2 80.5699 59.47C80.5699 58.74 80.5699 58.24 80.6299 57.81C80.6312 57.6123 80.6479 57.415 80.6799 57.22Z" fill="#E0E0E0"/>
<path d="M81.6899 75.9999C81.7286 73.7601 82.5453 71.6035 83.9999 69.8999C84.213 69.5905 84.4983 69.3377 84.8311 69.1634C85.164 68.9892 85.5343 68.8987 85.9099 68.8999C86.9099 69.0499 87.3599 70.2399 87.3999 71.2499C87.4532 72.9586 86.8847 74.6286 85.7999 75.9499C84.8736 77.2236 83.4836 78.082 81.9299 78.3399" fill="#E0E0E0"/>
<path d="M83.89 88.1599C83.77 85.5499 84.61 81.4999 86.14 79.3699C86.3628 79.0203 86.6556 78.7207 87 78.4899C87.173 78.3728 87.3728 78.3014 87.5809 78.2821C87.7889 78.2629 87.9984 78.2965 88.19 78.3799C88.4413 78.5454 88.6471 78.7712 88.7886 79.0368C88.9301 79.3023 89.0028 79.5991 89 79.8999C89.14 81.801 88.7461 83.7035 87.8627 85.3926C86.9792 87.0818 85.6413 88.4905 84 89.4599" fill="#E0E0E0"/>
<path d="M86.74 98.5999C87.0071 95.9811 87.9628 93.4797 89.51 91.3499C89.663 91.0826 89.8687 90.8492 90.1144 90.6635C90.3602 90.4779 90.641 90.344 90.94 90.2699C91.87 90.1499 92.6 91.0899 92.8 91.9999C93.22 93.8699 92.29 95.7799 91.21 97.3599C90.179 98.6902 88.9789 99.8802 87.64 100.9" fill="#E0E0E0"/>
<path d="M89.3098 105.94C89.7211 103.877 90.5777 101.928 91.8198 100.23C92.0807 99.8581 92.4226 99.5504 92.8198 99.33C93.0241 99.2268 93.2522 99.1798 93.4807 99.1938C93.7091 99.2079 93.9297 99.2825 94.1198 99.41C94.6898 99.86 94.5598 100.76 94.3198 101.41C93.5475 103.777 92.0413 105.836 90.0198 107.29" fill="#E0E0E0"/>
<path d="M88.17 103C85.8236 101.46 83.3397 100.141 80.75 99.0599C80.5625 98.9481 80.3505 98.8842 80.1325 98.8737C79.9145 98.8633 79.6973 98.9066 79.5 98.9999C79.3691 99.1096 79.2729 99.2549 79.2232 99.4183C79.1735 99.5817 79.1724 99.7559 79.22 99.9199C79.3203 100.246 79.4949 100.543 79.73 100.79C80.8737 102.067 82.2898 103.07 83.8736 103.726C85.4574 104.382 87.1683 104.674 88.88 104.58" fill="#E0E0E0"/>
<path d="M85.2999 93.29L79.1899 89.29C78.632 88.8758 78.001 88.5704 77.3299 88.39C76.9971 88.2779 76.6376 88.2729 76.3019 88.3758C75.9661 88.4786 75.671 88.684 75.458 88.9632C75.2451 89.2424 75.1249 89.5812 75.1145 89.9322C75.1041 90.2832 75.2039 90.6286 75.3999 90.92C75.7637 91.5134 76.2473 92.0243 76.8199 92.42C78.096 93.466 79.5489 94.2754 81.1099 94.81C81.8088 95.107 82.5605 95.2601 83.3199 95.2601C84.0793 95.2601 84.831 95.107 85.5299 94.81" fill="#E0E0E0"/>
<path d="M82.4799 82.2399C80.8003 79.9469 78.544 78.1391 75.9399 76.9999C75.5191 76.7762 75.046 76.6691 74.5699 76.6899C74.1081 76.791 73.6971 77.0523 73.4097 77.4276C73.1223 77.8029 72.9771 78.2678 72.9999 78.7399C73.0137 79.2712 73.1383 79.7938 73.3655 80.2742C73.5928 80.7546 73.9179 81.1823 74.3199 81.5299C75.1345 82.2158 76.0756 82.7356 77.0899 83.0599C78.9291 83.7295 80.8635 84.1009 82.8199 84.1599" fill="#E0E0E0"/>
<path d="M81.1799 72C79.7699 69 77.3299 66.94 74.6499 65C74.4 64.7585 74.0915 64.5864 73.7548 64.5005C73.4181 64.4145 73.0649 64.4178 72.7299 64.51C72.5381 64.6211 72.3767 64.7778 72.2598 64.9662C72.143 65.1545 72.0743 65.3688 72.0599 65.59C72.0433 66.0338 72.1182 66.4763 72.2799 66.89C72.9612 68.7572 74.1788 70.3816 75.78 71.5593C77.3811 72.7371 79.2945 73.4157 81.2799 73.51" fill="#E0E0E0"/>
<path d="M80.8499 66.67C80.1377 65.1412 79.5751 63.5471 79.1699 61.91C78.7561 60.2598 78.8185 58.5261 79.3499 56.91C79.5688 56.2153 79.9817 55.5977 80.5399 55.13C80.816 54.9064 81.1436 54.7554 81.4929 54.6908C81.8422 54.6262 82.2021 54.65 82.5399 54.76C82.8434 54.9068 83.1103 55.1194 83.3214 55.3824C83.5324 55.6453 83.6822 55.9519 83.7599 56.28C83.9017 56.937 83.9287 57.6137 83.8399 58.28C83.5599 61.48 82.5899 65.23 80.8399 66.66" fill="#E0E0E0"/>
<path d="M126.66 56.83C126.675 57.0196 126.675 57.2103 126.66 57.4C126.66 57.83 126.66 58.4 126.72 59.06C126.78 59.72 126.72 60.67 126.72 61.69C126.72 62.71 126.72 63.89 126.66 65.18C126.59 67.76 126.37 70.83 126 74.18C125.63 77.53 125 81.29 124.23 85.18C123.46 89.07 122.44 92.67 121.44 95.93C120.44 99.19 119.38 102.09 118.44 104.48C117.99 105.69 117.5 106.76 117.1 107.7C116.7 108.64 116.33 109.44 116.02 110.09C115.71 110.74 115.48 111.21 115.29 111.59C115.218 111.771 115.124 111.942 115.01 112.1C115.062 111.911 115.128 111.728 115.21 111.55C115.38 111.17 115.59 110.66 115.86 110.03C116.13 109.4 116.51 108.56 116.86 107.61C117.21 106.66 117.7 105.61 118.14 104.37C119.07 101.97 120.07 99.07 121.07 95.82C122.07 92.57 123.01 88.94 123.82 85.09C124.63 81.24 125.2 77.55 125.62 74.17C126.04 70.79 126.26 67.73 126.37 65.17C126.45 63.88 126.46 62.71 126.49 61.69C126.52 60.67 126.49 59.79 126.49 59.07C126.49 58.35 126.49 57.83 126.49 57.41C126.522 57.2102 126.579 57.0153 126.66 56.83Z" fill="#EBEBEB"/>
<path d="M125.64 75.5799C125.602 73.3461 124.785 71.1957 123.33 69.4999C123.116 69.1891 122.829 68.9354 122.494 68.7611C122.16 68.5868 121.787 68.4971 121.41 68.4999C120.41 68.6499 119.96 69.8399 119.93 70.8499C119.878 72.5567 120.443 74.225 121.52 75.5499C122.446 76.8237 123.836 77.6821 125.39 77.9399" fill="#EBEBEB"/>
<path d="M123.45 87.7599C123.57 85.1499 122.73 81.0999 121.2 78.9699C120.977 78.6203 120.684 78.3207 120.34 78.0899C120.167 77.9728 119.967 77.9013 119.759 77.8821C119.551 77.8629 119.342 77.8965 119.15 77.9799C118.908 78.1511 118.712 78.3794 118.579 78.6446C118.447 78.9097 118.382 79.2036 118.39 79.4999C118.243 81.394 118.626 83.2917 119.497 84.9802C120.368 86.6687 121.692 88.0813 123.32 89.0599" fill="#EBEBEB"/>
<path d="M120.6 98.1999C120.326 95.5965 119.366 93.1123 117.82 90.9999C117.67 90.7323 117.466 90.4983 117.222 90.3125C116.978 90.1267 116.698 89.9931 116.4 89.9199C115.47 89.7999 114.74 90.7399 114.53 91.6499C114.12 93.5199 115.05 95.4299 116.13 97.0099C117.161 98.3402 118.361 99.5302 119.7 100.55" fill="#EBEBEB"/>
<path d="M118 105.54C117.589 103.477 116.732 101.528 115.49 99.8299C115.224 99.4629 114.883 99.1562 114.49 98.9299C114.286 98.8257 114.058 98.7781 113.829 98.7922C113.6 98.8063 113.38 98.8815 113.19 99.0099C112.62 99.4599 112.74 100.36 112.99 101.01C113.762 103.377 115.268 105.436 117.29 106.89" fill="#EBEBEB"/>
<path d="M119.17 102.59C121.516 101.05 124 99.7314 126.59 98.65C126.777 98.5366 126.988 98.471 127.206 98.4587C127.424 98.4465 127.642 98.4882 127.84 98.58C127.971 98.6897 128.067 98.835 128.117 98.9984C128.166 99.1617 128.168 99.336 128.12 99.5C128.016 99.8238 127.841 100.121 127.61 100.37C126.466 101.647 125.05 102.65 123.466 103.307C121.883 103.963 120.172 104.254 118.46 104.16" fill="#EBEBEB"/>
<path d="M122 92.89L128.11 88.89C128.678 88.4759 129.319 88.1738 130 88C130.333 87.8879 130.692 87.8829 131.028 87.9857C131.364 88.0886 131.659 88.294 131.872 88.5732C132.085 88.8523 132.205 89.1912 132.215 89.5422C132.226 89.8932 132.126 90.2386 131.93 90.53C131.57 91.1263 131.086 91.638 130.51 92.03C129.235 93.0776 127.782 93.8872 126.22 94.42C125.522 94.7193 124.77 94.8736 124.01 94.8736C123.25 94.8736 122.498 94.7193 121.8 94.42" fill="#EBEBEB"/>
<path d="M124.86 81.84C126.538 79.5433 128.795 77.7319 131.4 76.59C131.82 76.3653 132.294 76.2582 132.77 76.28C133.234 76.3813 133.646 76.6442 133.933 77.0215C134.221 77.3989 134.365 77.8662 134.34 78.34C134.324 78.8728 134.196 79.3963 133.965 79.8768C133.734 80.3573 133.406 80.7842 133 81.13C132.185 81.8159 131.244 82.3356 130.23 82.66C128.387 83.3296 126.45 83.701 124.49 83.76" fill="#EBEBEB"/>
<path d="M126.16 71.6099C127.57 68.6099 130.01 66.5499 132.69 64.6099C132.94 64.3685 133.248 64.1964 133.585 64.1105C133.922 64.0245 134.275 64.0278 134.61 64.12C134.801 64.2325 134.961 64.3895 135.078 64.5776C135.195 64.7656 135.264 64.9792 135.28 65.1999C135.297 65.6438 135.222 66.0863 135.06 66.4999C134.38 68.3679 133.163 69.993 131.561 71.1709C129.96 72.3488 128.046 73.0269 126.06 73.12" fill="#EBEBEB"/>
<path d="M126.49 66.2699C127.198 64.7394 127.76 63.1457 128.17 61.5099C128.584 59.8597 128.521 58.1261 127.99 56.5099C127.767 55.8172 127.355 55.2006 126.8 54.7299C126.524 54.5056 126.196 54.3548 125.846 54.2919C125.497 54.2289 125.136 54.2558 124.8 54.3699C124.496 54.5134 124.228 54.7237 124.017 54.9852C123.806 55.2467 123.656 55.5525 123.58 55.8799C123.433 56.5364 123.406 57.2138 123.5 57.8799C123.78 61.0799 124.75 64.8799 126.5 66.2599" fill="#EBEBEB"/>
<path d="M72.9099 112.11V119.81C72.9099 120.606 73.226 121.369 73.7886 121.931C74.3512 122.494 75.1143 122.81 75.9099 122.81H128.6C129.396 122.81 130.159 122.494 130.721 121.931C131.284 121.369 131.6 120.606 131.6 119.81V112.11H72.9099Z" fill="#EBEBEB"/>
<path d="M77.47 122.84L77.91 125.29L126.5 128.75L127.73 122.84H77.47Z" fill="#E0E0E0"/>
<path d="M155.37 106.62C155.37 106.62 146.64 113.27 155 122.06C155.074 122.133 155.161 122.191 155.257 122.231C155.353 122.27 155.456 122.29 155.56 122.29L231.82 121.85C231.82 121.85 238.34 114.54 232.93 106.13L155.37 106.62Z" fill="#EBEBEB"/>
<path d="M215 113.56C215 113.65 205.5 113.72 193.79 113.72C182.08 113.72 172.58 113.65 172.58 113.56C172.58 113.47 182.07 113.41 193.79 113.41C205.51 113.41 215 113.48 215 113.56Z" fill="#E0E0E0"/>
<path d="M203.11 116.32C203.11 116.41 198.64 116.48 193.11 116.48C187.58 116.48 183.11 116.41 183.11 116.32C183.11 116.23 187.58 116.17 193.11 116.17C198.64 116.17 203.11 116.24 203.11 116.32Z" fill="#E0E0E0"/>
<path d="M222.77 121.6C222.72 121.6 222.93 120.73 223.17 119.32C223.477 117.479 223.624 115.616 223.61 113.75C223.588 111.888 223.408 110.031 223.07 108.2C222.8 106.79 222.57 105.93 222.62 105.92C222.72 106.102 222.794 106.297 222.84 106.5C222.97 106.88 223.12 107.5 223.28 108.15C223.688 109.989 223.903 111.866 223.92 113.75C223.938 115.634 223.757 117.514 223.38 119.36C223.281 119.913 223.154 120.46 223 121C222.949 121.209 222.872 121.411 222.77 121.6Z" fill="#E0E0E0"/>
<path d="M228.46 106C228.597 106.171 228.711 106.36 228.8 106.56C228.925 106.78 229.039 107.007 229.14 107.24C229.26 107.51 229.41 107.82 229.53 108.17C229.838 108.993 230.079 109.839 230.25 110.7C230.458 111.758 230.568 112.832 230.58 113.91C230.583 114.99 230.49 116.067 230.3 117.13C230.144 117.994 229.916 118.844 229.62 119.67C229.5 120.02 229.36 120.33 229.24 120.61C229.12 120.89 229.02 121.11 228.92 121.3C228.829 121.494 228.718 121.678 228.59 121.85C228.53 121.85 228.96 121.01 229.41 119.6C229.671 118.775 229.875 117.933 230.02 117.08C230.193 116.032 230.28 114.972 230.28 113.91C230.258 112.85 230.155 111.794 229.97 110.75C229.812 109.899 229.595 109.06 229.32 108.24C228.84 106.87 228.41 106.06 228.46 106Z" fill="#E0E0E0"/>
<path d="M167.4 121.71C167.266 121.553 167.149 121.382 167.05 121.2C166.914 120.996 166.794 120.782 166.69 120.56C166.542 120.274 166.408 119.98 166.29 119.68C165.962 118.906 165.711 118.103 165.54 117.28C165.341 116.266 165.244 115.234 165.25 114.2C165.27 113.17 165.394 112.145 165.62 111.14C165.817 110.324 166.088 109.527 166.43 108.76C166.57 108.42 166.73 108.14 166.86 107.89C166.972 107.672 167.099 107.461 167.24 107.26C167.345 107.083 167.465 106.916 167.6 106.76C167.66 106.76 167.17 107.53 166.6 108.84C166.294 109.606 166.05 110.395 165.87 111.2C165.661 112.187 165.544 113.191 165.52 114.2C165.519 115.206 165.61 116.21 165.79 117.2C165.943 118.012 166.167 118.808 166.46 119.58C167 120.92 167.46 121.68 167.4 121.71Z" fill="#E0E0E0"/>
<path d="M159.17 123.57C159.017 123.393 158.886 123.198 158.78 122.99C158.633 122.758 158.499 122.517 158.38 122.27C158.24 121.98 158.06 121.66 157.92 121.27C157.548 120.401 157.253 119.501 157.04 118.58C156.795 117.445 156.654 116.29 156.62 115.13C156.598 113.974 156.689 112.819 156.89 111.68C157.059 110.75 157.31 109.836 157.64 108.95C157.77 108.57 157.93 108.24 158.06 107.95C158.19 107.66 158.32 107.41 158.43 107.21C158.533 107.004 158.654 106.806 158.79 106.62C158.85 106.62 158.36 107.51 157.85 109.02C157.556 109.905 157.329 110.811 157.17 111.73C156.786 113.979 156.837 116.28 157.32 118.51C157.519 119.422 157.786 120.318 158.12 121.19C158.7 122.69 159.22 123.54 159.17 123.57Z" fill="#E0E0E0"/>
<path d="M229 145.08V159.67H200.79V145.08H229Z" fill="#EBEBEB"/>
<path d="M137.82 152.51C137.82 152.64 137.82 152.77 137.82 152.89C137.953 155.023 138.897 157.024 140.46 158.482C142.022 159.94 144.083 160.744 146.22 160.73H230.32V159.67H210.32C208.384 159.67 206.527 158.901 205.158 157.532C203.789 156.163 203.02 154.306 203.02 152.37C203.02 151.412 203.209 150.463 203.576 149.578C203.943 148.693 204.481 147.889 205.159 147.212C205.837 146.535 206.641 145.998 207.527 145.632C208.413 145.266 209.362 145.079 210.32 145.08H230.32V143.52L146.19 143.81C145.064 143.815 143.951 144.045 142.916 144.488C141.88 144.931 140.945 145.578 140.164 146.389C139.384 147.201 138.774 148.16 138.371 149.212C137.969 150.263 137.781 151.385 137.82 152.51Z" fill="#E0E0E0"/>
<path d="M229 152.57C229 152.65 223.19 152.72 216 152.72C208.81 152.72 203 152.65 203 152.57C203 152.49 208.8 152.41 216 152.41C223.2 152.41 229 152.48 229 152.57Z" fill="#E0E0E0"/>
<path d="M228.62 155.86C228.62 155.94 223.12 156.01 216.35 156.01C209.58 156.01 204.08 155.94 204.08 155.86C204.08 155.78 209.57 155.7 216.35 155.7C223.13 155.7 228.62 155.77 228.62 155.86Z" fill="#E0E0E0"/>
<path d="M229 158.86C229 158.95 224.06 159.02 218 159.02C211.94 159.02 207 158.95 207 158.86C207 158.77 211.94 158.71 218 158.71C224.06 158.71 229 158.78 229 158.86Z" fill="#E0E0E0"/>
<path d="M229 149.61C229 149.7 223.31 149.77 216.29 149.77C209.27 149.77 203.59 149.7 203.59 149.61C203.59 149.52 209.28 149.46 216.29 149.46C223.3 149.46 229 149.53 229 149.61Z" fill="#E0E0E0"/>
<path d="M228.62 146.66C228.62 146.74 223.55 146.81 217.31 146.81C211.07 146.81 206 146.74 206 146.66C206 146.58 211.07 146.5 217.31 146.5C223.55 146.5 228.62 146.57 228.62 146.66Z" fill="#E0E0E0"/>
<path d="M148 144.05C147.355 144.718 146.757 145.43 146.21 146.18C144.934 148.023 144.262 150.217 144.289 152.459C144.316 154.7 145.04 156.878 146.36 158.69C146.921 159.428 147.536 160.123 148.2 160.77C147.981 160.643 147.776 160.492 147.59 160.32C147.066 159.87 146.593 159.364 146.18 158.81C144.795 156.979 144.028 154.755 143.99 152.46C143.968 150.166 144.668 147.924 145.99 146.05C146.394 145.495 146.853 144.983 147.36 144.52C147.553 144.338 147.768 144.18 148 144.05Z" fill="#F5F5F5"/>
<path d="M145.16 143.74C144.517 144.407 143.922 145.119 143.38 145.87C142.104 147.711 141.433 149.904 141.46 152.144C141.487 154.384 142.21 156.56 143.53 158.37C144.088 159.11 144.7 159.809 145.36 160.46C145.145 160.331 144.944 160.18 144.76 160.01C144.233 159.563 143.76 159.056 143.35 158.5C141.949 156.675 141.177 154.445 141.15 152.145C141.123 149.844 141.842 147.597 143.2 145.74C143.602 145.18 144.061 144.664 144.57 144.2C144.748 144.024 144.946 143.87 145.16 143.74Z" fill="#F5F5F5"/>
<path d="M202.31 144.05C201.667 144.717 201.072 145.429 200.53 146.18C199.271 148.028 198.601 150.214 198.61 152.45C198.658 154.689 199.375 156.862 200.67 158.69C201.234 159.425 201.849 160.12 202.51 160.77C202.291 160.643 202.086 160.492 201.9 160.32C201.379 159.869 200.91 159.363 200.5 158.81C199.099 156.985 198.327 154.755 198.3 152.455C198.273 150.154 198.992 147.907 200.35 146.05C200.749 145.491 201.208 144.978 201.72 144.52C201.896 144.339 202.095 144.182 202.31 144.05Z" fill="#F5F5F5"/>
<path d="M199.47 143.74C198.825 144.408 198.227 145.12 197.68 145.87C196.404 147.711 195.733 149.904 195.76 152.144C195.787 154.384 196.51 156.56 197.83 158.37C198.389 159.112 199.004 159.811 199.67 160.46C199.45 160.333 199.246 160.182 199.06 160.01C198.536 159.56 198.063 159.054 197.65 158.5C196.265 156.669 195.498 154.445 195.46 152.15C195.432 150.651 195.722 149.164 196.309 147.785C196.897 146.407 197.77 145.168 198.87 144.15C199.055 143.992 199.256 143.855 199.47 143.74Z" fill="#F5F5F5"/>
<path d="M157.58 154.56C157.58 152.56 157.53 150.56 157.5 148.63C157.522 148.112 157.45 147.593 157.29 147.1C157.207 146.855 157.058 146.637 156.861 146.47C156.664 146.303 156.425 146.192 156.17 146.15C155.696 146.057 155.205 146.117 154.768 146.322C154.331 146.527 153.971 146.866 153.74 147.29C153.296 148.193 153.096 149.196 153.16 150.2C153.152 151.766 153.228 153.332 153.39 154.89C153.423 155.634 153.611 156.362 153.94 157.03C154.089 157.376 154.343 157.666 154.666 157.86C154.989 158.054 155.365 158.142 155.741 158.111C156.116 158.08 156.472 157.932 156.759 157.688C157.046 157.444 157.249 157.116 157.34 156.75C157.554 156.041 157.636 155.299 157.58 154.56Z" fill="#F5F5F5"/>
<path d="M190.25 152.85C190.25 152.94 184.17 153.01 176.67 153.01C169.17 153.01 163.09 152.94 163.09 152.85C163.09 152.76 169.17 152.7 176.67 152.7C184.17 152.7 190.25 152.77 190.25 152.85Z" fill="#F5F5F5"/>
<path d="M151.95 143.47L151.79 129.64H159.32L159.58 143.47H151.95Z" fill="#F5F5F5"/>
<path d="M158.88 132.1C157.719 132.248 156.549 132.298 155.38 132.25C154.211 132.298 153.04 132.248 151.88 132.1C153.039 131.939 154.211 131.885 155.38 131.94C156.549 131.886 157.721 131.94 158.88 132.1Z" fill="#E0E0E0"/>
<path d="M158.88 134.23C157.721 134.39 156.549 134.444 155.38 134.39C154.211 134.444 153.039 134.391 151.88 134.23C153.04 134.082 154.211 134.032 155.38 134.08C156.549 134.032 157.719 134.082 158.88 134.23Z" fill="#E0E0E0"/>
<path d="M158.88 136.37C157.719 136.518 156.549 136.568 155.38 136.52C154.211 136.568 153.04 136.518 151.88 136.37C153.039 136.209 154.211 136.155 155.38 136.21C156.549 136.156 157.721 136.21 158.88 136.37Z" fill="#E0E0E0"/>
<path d="M158.88 138.5C157.721 138.66 156.549 138.714 155.38 138.66C154.211 138.715 153.039 138.661 151.88 138.5C153.04 138.352 154.211 138.302 155.38 138.35C156.549 138.302 157.719 138.352 158.88 138.5Z" fill="#E0E0E0"/>
<path d="M158.88 140.64C157.719 140.788 156.549 140.838 155.38 140.79C154.211 140.838 153.04 140.788 151.88 140.64C153.039 140.479 154.211 140.425 155.38 140.48C156.549 140.426 157.721 140.48 158.88 140.64Z" fill="#E0E0E0"/>
<path d="M151.39 129.27H234.85C235.811 134.207 235.811 139.283 234.85 144.22H151.75V143.22H156.83C157.465 143.217 158.073 142.963 158.52 142.514C158.968 142.064 159.22 141.455 159.22 140.82V132.54C159.22 131.905 158.968 131.296 158.52 130.846C158.073 130.397 157.465 130.143 156.83 130.14H151.39V129.27Z" fill="#EBEBEB"/>
<path d="M171.12 136.76H172.51C172.559 136.748 172.611 136.748 172.66 136.76C172.706 136.785 172.745 136.823 172.771 136.869C172.798 136.915 172.811 136.967 172.81 137.02C172.816 137.05 172.816 137.08 172.81 137.11C172.81 137.23 172.75 137.35 172.72 137.47C172.549 138.054 172.252 138.593 171.85 139.05C171.705 139.229 171.524 139.376 171.319 139.481C171.115 139.586 170.89 139.647 170.66 139.66H170.49C170.291 139.621 170.103 139.539 169.939 139.42C169.774 139.301 169.638 139.147 169.54 138.97C169.251 138.462 169.109 137.884 169.13 137.3C169.129 136.895 169.183 136.491 169.29 136.1C169.443 135.508 169.727 134.958 170.12 134.49C170.267 134.292 170.457 134.129 170.675 134.014C170.893 133.898 171.133 133.832 171.38 133.82C171.56 133.819 171.738 133.86 171.9 133.94C172.29 134.158 172.583 134.515 172.72 134.94C172.73 134.986 172.73 135.034 172.72 135.08C172.734 135.129 172.734 135.181 172.72 135.23C172.694 135.276 172.657 135.315 172.611 135.341C172.565 135.368 172.513 135.381 172.46 135.38H172.37C172.324 135.369 172.282 135.345 172.248 135.311C172.215 135.278 172.191 135.236 172.18 135.19C172.142 135.071 172.084 134.96 172.01 134.86C171.96 134.762 171.889 134.676 171.802 134.61C171.714 134.543 171.613 134.497 171.505 134.475C171.398 134.452 171.287 134.455 171.18 134.482C171.073 134.509 170.974 134.559 170.89 134.63C170.537 134.913 170.274 135.291 170.13 135.72C169.918 136.216 169.805 136.75 169.8 137.29C169.786 137.716 169.868 138.14 170.04 138.53C170.091 138.683 170.187 138.816 170.316 138.912C170.444 139.009 170.599 139.064 170.76 139.07C170.894 139.053 171.024 139.009 171.141 138.94C171.258 138.871 171.36 138.779 171.44 138.67C171.757 138.286 171.998 137.844 172.15 137.37H171.15C170.93 137.37 170.82 137.22 170.82 137.03C170.811 136.997 170.811 136.963 170.82 136.93C170.847 136.875 170.891 136.83 170.944 136.799C170.998 136.769 171.059 136.755 171.12 136.76Z" fill="#FAFAFA"/>
<path d="M175.86 134C175.863 134.033 175.863 134.067 175.86 134.1C175.92 134.3 176.24 136.03 176.86 139.27C176.865 139.293 176.865 139.317 176.86 139.34C176.875 139.392 176.875 139.448 176.86 139.5C176.837 139.546 176.801 139.585 176.757 139.612C176.713 139.638 176.662 139.651 176.61 139.65C176.555 139.643 176.503 139.619 176.462 139.581C176.421 139.544 176.392 139.494 176.38 139.44L176.04 137.72H174.33L173.51 139.45C173.481 139.493 173.443 139.529 173.397 139.555C173.352 139.581 173.302 139.596 173.25 139.6C173.193 139.599 173.138 139.581 173.09 139.55C173.047 139.524 173.012 139.487 172.987 139.443C172.962 139.4 172.95 139.35 172.95 139.3C172.945 139.27 172.945 139.24 172.95 139.21L173.2 138.64C174.4 136.02 175.12 134.477 175.36 134.01C175.381 133.949 175.42 133.896 175.472 133.859C175.524 133.821 175.586 133.801 175.65 133.8C175.7 133.812 175.745 133.837 175.782 133.872C175.819 133.907 175.846 133.951 175.86 134ZM175.49 135.15L174.56 137.1H175.87L175.49 135.15Z" fill="#FAFAFA"/>
<path d="M180.52 139.69H178C177.943 139.689 177.887 139.672 177.84 139.64C177.755 139.559 177.704 139.448 177.7 139.33C177.7 139.23 177.93 137.51 178.39 134.18C178.386 134.143 178.386 134.107 178.39 134.07C178.409 134.015 178.446 133.967 178.495 133.935C178.544 133.902 178.602 133.887 178.66 133.89C178.706 133.881 178.754 133.881 178.8 133.89C178.848 133.916 178.887 133.956 178.914 134.003C178.94 134.051 178.953 134.105 178.95 134.16C178.95 134.39 178.87 134.86 178.78 135.57C178.487 137.77 178.337 138.93 178.33 139.05H180.47C180.523 139.04 180.577 139.04 180.63 139.05C180.688 139.07 180.738 139.108 180.772 139.158C180.806 139.209 180.823 139.269 180.82 139.33C180.825 139.363 180.825 139.397 180.82 139.43C180.802 139.499 180.764 139.56 180.71 139.607C180.657 139.653 180.59 139.682 180.52 139.69Z" fill="#FAFAFA"/>
<path d="M184 134C184.003 134.033 184.003 134.067 184 134.1C184.06 134.3 184.39 136.03 185 139.27C185 139.27 185 139.32 185 139.34C185.015 139.392 185.015 139.448 185 139.5C184.977 139.546 184.941 139.585 184.897 139.612C184.853 139.638 184.802 139.651 184.75 139.65C184.695 139.642 184.644 139.617 184.603 139.58C184.562 139.542 184.533 139.494 184.52 139.44L184.19 137.72H182.47L181.65 139.45C181.622 139.494 181.583 139.53 181.538 139.556C181.493 139.582 181.442 139.597 181.39 139.6C181.333 139.597 181.278 139.58 181.23 139.55C181.178 139.512 181.139 139.459 181.118 139.398C181.096 139.338 181.094 139.272 181.11 139.21C181.17 139.09 181.25 138.9 181.37 138.64C182.57 136.02 183.287 134.477 183.52 134.01C183.549 133.975 183.586 133.947 183.627 133.928C183.668 133.908 183.712 133.897 183.758 133.897C183.803 133.896 183.848 133.904 183.89 133.922C183.932 133.94 183.969 133.966 184 134ZM183.62 135.15L182.69 137.1H184L183.62 135.15Z" fill="#FAFAFA"/>
<path d="M188 137L188.46 138.26C188.72 138.97 188.85 139.35 188.85 139.39C188.849 139.444 188.831 139.496 188.8 139.54C188.773 139.582 188.736 139.617 188.693 139.642C188.649 139.666 188.6 139.679 188.55 139.68C188.492 139.678 188.437 139.657 188.392 139.621C188.347 139.585 188.315 139.536 188.3 139.48V139.35C188.16 139.04 187.94 138.45 187.63 137.58L186.2 139.52C186.175 139.568 186.137 139.607 186.092 139.636C186.046 139.664 185.994 139.679 185.94 139.68C185.887 139.694 185.832 139.694 185.78 139.68C185.737 139.654 185.701 139.617 185.677 139.574C185.652 139.53 185.64 139.48 185.64 139.43C185.634 139.407 185.634 139.383 185.64 139.36C185.668 139.271 185.716 139.189 185.78 139.12C186.26 138.51 186.78 137.77 187.37 136.92L187.19 136.44C186.66 135.01 186.39 134.27 186.39 134.22C186.375 134.171 186.375 134.119 186.39 134.07C186.41 134.024 186.444 133.985 186.487 133.958C186.529 133.931 186.579 133.918 186.63 133.92C186.687 133.918 186.743 133.933 186.792 133.961C186.842 133.989 186.882 134.03 186.91 134.08L187.75 136.35L189.43 134.06C189.46 134.017 189.501 133.981 189.548 133.957C189.595 133.933 189.647 133.92 189.7 133.92C189.743 133.91 189.787 133.91 189.83 133.92C189.878 133.946 189.917 133.986 189.944 134.033C189.97 134.081 189.983 134.135 189.98 134.19C189.988 134.236 189.988 134.284 189.98 134.33L188 137Z" fill="#FAFAFA"/>
<path d="M194.19 133.91C194.236 133.9 194.284 133.9 194.33 133.91C194.377 133.935 194.417 133.972 194.446 134.018C194.474 134.064 194.489 134.116 194.49 134.17C194.08 137.42 193.85 139.17 193.81 139.44C193.734 139.931 193.55 140.399 193.27 140.81C193.079 141.072 192.827 141.283 192.536 141.426C192.245 141.569 191.924 141.639 191.6 141.63C191.318 141.618 191.042 141.546 190.79 141.42C190.415 141.269 190.105 140.994 189.91 140.64C189.894 140.591 189.894 140.539 189.91 140.49C189.9 140.444 189.9 140.396 189.91 140.35C189.936 140.304 189.973 140.265 190.019 140.239C190.065 140.212 190.117 140.199 190.17 140.2C190.215 140.2 190.26 140.211 190.3 140.232C190.34 140.253 190.374 140.283 190.4 140.32C190.54 140.537 190.73 140.717 190.955 140.844C191.179 140.972 191.432 141.042 191.69 141.05C191.883 141.047 192.074 141 192.247 140.914C192.42 140.827 192.571 140.703 192.69 140.55C193.03 140.088 193.221 139.533 193.24 138.96C193.144 139.116 193.018 139.252 192.87 139.36C192.608 139.549 192.293 139.651 191.97 139.65H191.8C191.592 139.621 191.394 139.545 191.22 139.427C191.047 139.309 190.903 139.153 190.8 138.97C190.513 138.458 190.371 137.877 190.39 137.29C190.39 136.98 190.39 136.67 190.39 136.35C190.466 135.621 190.58 134.897 190.73 134.18C190.725 134.15 190.725 134.12 190.73 134.09C190.744 134.049 190.766 134.012 190.796 133.981C190.825 133.95 190.862 133.926 190.902 133.91C190.942 133.895 190.985 133.889 191.028 133.892C191.071 133.896 191.113 133.908 191.15 133.93C191.196 133.95 191.235 133.984 191.262 134.027C191.289 134.069 191.302 134.119 191.3 134.17C191.3 134.32 191.25 134.7 191.16 135.31C191.062 135.893 190.995 136.48 190.96 137.07C190.945 137.534 191.023 137.997 191.19 138.43C191.36 138.84 191.61 139.05 191.93 139.05H192.03C192.347 138.948 192.617 138.735 192.79 138.45C193.088 138.037 193.299 137.567 193.41 137.07L193.79 134.2C193.78 134.157 193.78 134.113 193.79 134.07C193.799 134.028 193.818 133.99 193.846 133.957C193.873 133.925 193.908 133.9 193.947 133.884C193.987 133.868 194.03 133.862 194.072 133.867C194.114 133.871 194.155 133.886 194.19 133.91Z" fill="#FAFAFA"/>
<path d="M231.72 144.42C231.63 144.42 231.56 140.98 231.56 136.75C231.56 132.52 231.63 129.08 231.72 129.08C231.81 129.08 231.87 132.51 231.87 136.75C231.87 140.99 231.8 144.42 231.72 144.42Z" fill="#F5F5F5"/>
<path d="M163.42 144.42C163.34 144.42 163.27 140.98 163.27 136.75C163.27 132.52 163.34 129.08 163.42 129.08C163.5 129.08 163.57 132.51 163.57 136.75C163.57 140.99 163.51 144.42 163.42 144.42Z" fill="#E0E0E0"/>
<path d="M233.18 144.42C233.1 144.42 233.03 140.98 233.03 136.75C233.03 132.52 233.1 129.08 233.18 129.08C233.26 129.08 233.34 132.51 233.34 136.75C233.34 140.99 233.27 144.42 233.18 144.42Z" fill="#F5F5F5"/>
<path d="M162.05 144.42C161.97 144.42 161.9 140.98 161.9 136.75C161.9 132.52 161.97 129.08 162.05 129.08C162.13 129.08 162.21 132.51 162.21 136.75C162.21 140.99 162.14 144.42 162.05 144.42Z" fill="#E0E0E0"/>
<path d="M211.48 131.6L220.3 138.71L220.38 138.78H220.28L219.11 139.09L211.65 141L204.9 138.14L202.99 137.32L202.48 137.1L202.36 137.04H202.49L203 137.24L204.92 138.04L211.68 140.87L219.12 138.87L220.29 138.56V138.65L211.49 131.51" fill="#E0E0E0"/>
<path d="M219.49 137.59L219.97 138.04L220.62 137.9L220.34 138.5L220.67 139.07L220.01 138.98L219.57 139.47L219.45 138.83L218.84 138.56L219.42 138.24L219.49 137.59Z" fill="#E0E0E0"/>
<path d="M211.03 140.39L211.36 140.66L211.77 140.55L211.61 140.94L211.85 141.3L211.42 141.27L211.16 141.61L211.05 141.19L210.65 141.04L211.01 140.82L211.03 140.39Z" fill="#E0E0E0"/>
<path d="M201.68 136.56L202.21 136.59L202.53 136.18L202.66 136.68L203.15 136.86L202.71 137.14L202.69 137.67L202.29 137.33L201.78 137.48L201.98 136.99L201.68 136.56Z" fill="#E0E0E0"/>
<path d="M223.45 131.72L223.97 131.75L224.29 131.34L224.42 131.84L224.92 132.02L224.47 132.3L224.45 132.83L224.05 132.49L223.54 132.64L223.74 132.15L223.45 131.72Z" fill="#E0E0E0"/>
<path d="M211.05 131.37L211.39 131.39L211.59 131.13L211.68 131.45L211.99 131.57L211.71 131.75L211.7 132.08L211.44 131.87L211.12 131.96L211.24 131.65L211.05 131.37Z" fill="#E0E0E0"/>
<path d="M224.18 132.08C224.18 132.08 221.33 132.02 217.81 131.87C214.29 131.72 211.44 131.57 211.44 131.54C211.44 131.51 214.29 131.6 217.81 131.75C221.33 131.9 224.18 132.05 224.18 132.08Z" fill="#E0E0E0"/>
<path d="M227.39 129.14H142.74C141.63 126.62 141.36 124.23 142.74 122.14H227.39C227.907 123.234 228.174 124.43 228.174 125.64C228.174 126.85 227.907 128.046 227.39 129.14Z" fill="#E0E0E0"/>
<path d="M206.13 124.11H160.27V126.67H206.13V124.11Z" fill="#EBEBEB"/>
<path d="M146 129.18C145.716 128.95 145.487 128.66 145.33 128.33C144.897 127.562 144.634 126.709 144.56 125.83C144.481 124.95 144.59 124.064 144.88 123.23C144.97 122.862 145.145 122.519 145.39 122.23C145.316 122.57 145.215 122.905 145.09 123.23C144.872 124.048 144.794 124.896 144.86 125.74C144.939 126.582 145.163 127.404 145.52 128.17C145.703 128.495 145.864 128.833 146 129.18Z" fill="#E0E0E0"/>
<path d="M147.82 129.18C147.536 128.95 147.307 128.66 147.15 128.33C146.717 127.562 146.454 126.709 146.38 125.83C146.301 124.95 146.41 124.064 146.7 123.23C146.796 122.864 146.97 122.523 147.21 122.23C147.136 122.57 147.035 122.905 146.91 123.23C146.691 124.047 146.617 124.897 146.69 125.74C146.762 126.582 146.982 127.405 147.34 128.17C147.523 128.495 147.684 128.833 147.82 129.18Z" fill="#E0E0E0"/>
<path d="M224 129C224.773 126.768 224.773 124.342 224 122.11C224.578 123.166 224.88 124.351 224.88 125.555C224.88 126.759 224.578 127.944 224 129Z" fill="#F5F5F5"/>
<path d="M222.39 129C222.29 129 222.65 127.49 222.64 125.62C222.63 123.75 222.28 122.27 222.38 122.25C223.134 124.437 223.134 126.813 222.38 129H222.39Z" fill="#F5F5F5"/>
<path d="M82.8399 338.81C75.8399 335.19 67.5599 334.72 59.7599 336.01C55.5699 336.7 51.2099 337.95 48.3599 341.1C45.5099 344.25 44.9699 349.78 48.2399 352.48C50.1899 354.09 52.9099 354.33 55.4299 354.31C61.5299 354.23 68.2999 353.16 73.1799 356.83C75.9599 358.93 77.8099 362.41 81.1799 363.44C84.5499 364.47 88.0999 362.53 89.8299 359.59C91.5599 356.65 91.6099 352.98 90.8299 349.68C90.4305 347.373 89.501 345.191 88.1145 343.304C86.7279 341.418 84.9223 339.88 82.8399 338.81Z" fill="#EBEBEB"/>
<path d="M98.9299 307.76C94.6399 313.89 86.2899 311.86 82.4199 308.12C78.5499 304.38 76.9199 298.95 75.4199 293.78C71.9999 282 68.5999 269.56 71.1299 257.53C71.7402 253.881 73.3419 250.47 75.7599 247.67C78.2899 245 82.1799 243.41 85.7599 244.35C89.9699 245.46 92.5799 249.58 94.4699 253.5C100.037 265.075 102.951 277.746 103 290.59C103 296.59 102.32 302.83 98.9999 307.76" fill="#EBEBEB"/>
<path d="M110.72 316.56C106.06 311.03 105.17 302.96 107.25 296.03C109.33 289.1 114.01 283.2 119.41 278.39C125.76 272.729 133.155 268.364 141.18 265.54C144.288 264.283 147.632 263.717 150.98 263.88C154.3 264.19 157.65 265.88 159.2 268.88C161.49 273.25 159.29 278.55 156.91 282.88C152.724 290.505 147.943 297.788 142.61 304.66C138.32 310.18 133.41 315.66 126.88 318.13C120.35 320.6 113.56 320.34 110.1 315.8" fill="#EBEBEB"/>
<path d="M99.22 400.26C98.994 399.346 98.8633 398.411 98.83 397.47C98.63 395.47 98.39 392.9 98.09 389.87C97.7139 386.123 97.1432 382.398 96.38 378.71C95.4023 374.223 94.0646 369.822 92.38 365.55C90.7092 361.285 88.4471 357.275 85.66 353.64C83.3852 350.683 80.4819 348.268 77.16 346.57C74.9053 345.457 72.4888 344.708 70 344.35C69.0648 344.311 68.1364 344.173 67.23 343.94C68.1672 343.838 69.1128 343.838 70.05 343.94C72.6326 344.136 75.1592 344.793 77.51 345.88C81.0202 347.53 84.1007 349.97 86.51 353.01C89.4365 356.688 91.796 360.783 93.51 365.16C95.2318 369.494 96.5703 373.972 97.51 378.54C98.2296 382.27 98.7238 386.04 98.99 389.83C99.23 393.06 99.32 395.68 99.37 397.48C99.4196 398.409 99.3693 399.341 99.22 400.26Z" fill="#E0E0E0"/>
<path d="M98.7 394.41C98.6204 393.982 98.5936 393.545 98.62 393.11C98.62 392.11 98.62 390.92 98.62 389.42C98.62 386.21 98.62 381.56 98.46 375.83C98.17 364.36 97.19 352.02 95.28 334.62C93.47 318.26 91.05 299.22 88.49 286.85C87.94 284.03 87.39 281.5 86.87 279.28C86.35 277.06 85.95 275.14 85.54 273.59C85.13 272.04 84.91 270.94 84.68 269.99C84.5507 269.578 84.4735 269.151 84.45 268.72C84.6485 269.104 84.7996 269.51 84.9 269.93C85.18 270.86 85.54 272.03 85.97 273.47C86.4 274.91 86.97 276.91 87.5 279.13C88.03 281.35 88.69 283.87 89.29 286.68C92.4617 301.315 94.8451 316.109 96.43 331C98.34 348.43 99.2 364.31 99.28 375.81C99.35 381.55 99.28 386.21 99.08 389.42C98.99 390.92 98.91 392.14 98.85 393.11C98.852 393.548 98.8016 393.984 98.7 394.41Z" fill="#E0E0E0"/>
<path d="M98.6198 363.79C98.5154 362.505 98.5154 361.215 98.6198 359.93C98.7598 357.44 99.0998 353.86 99.7998 349.46C100.647 344.32 101.782 339.232 103.2 334.22C104.864 328.066 106.997 322.048 109.58 316.22C114.86 303.68 122.05 293.42 128.3 287.07C129.677 285.614 131.147 284.247 132.7 282.98C133.38 282.4 133.97 281.83 134.58 281.38L136.29 280.21C137.321 279.435 138.407 278.737 139.54 278.12C139.73 278.37 134.94 281.19 128.89 287.63C122.84 294.07 115.89 304.24 110.63 316.68C108.101 322.489 105.959 328.458 104.22 334.55C102.55 340.15 101.44 345.3 100.6 349.64C99.7598 353.98 99.3398 357.54 99.0598 360C99.0082 361.273 98.8612 362.539 98.6198 363.79Z" fill="#E0E0E0"/>
<path d="M128.21 417.8L125.15 459.83H71.1498L68.0798 417.8H128.21Z" fill="#E0E0E0"/>
<path d="M133.43 401.23H61.6399V417.8H133.43V401.23Z" fill="#E0E0E0"/>
<path d="M133.43 458.22V462.81H130.06H62.8198V458.22H133.43Z" fill="#EBEBEB"/>
<path d="M126.75 470.9L130.06 462.81H65.3899L69.2499 470.9H126.75Z" fill="#E0E0E0"/>
<path d="M69.0798 431.53C69.1453 431.671 69.2294 431.802 69.3298 431.92L70.1398 432.99L73.2898 436.99L73.4298 437.17L73.5598 436.98L81.2898 426.29H80.8498C83.1398 429.55 85.6998 433.17 88.4498 437.06L88.6898 437.4L88.9598 437.08L97.9598 426.35H97.4398L97.9398 426.97L106 437.11L106.27 437.45L106.52 437.1C109.25 433.22 111.81 429.6 114.13 426.33H113.68C117.44 430.6 120.62 434.23 123.06 437.01L123.23 437.2L123.35 436.98L126.29 432.05C126.6 431.52 126.84 431.05 127.04 430.74C127.24 430.43 127.29 430.28 127.27 430.27C127.149 430.396 127.045 430.537 126.96 430.69L126.12 431.95L123.04 436.79H123.34L114.14 426L113.91 425.72L113.7 426.02L106 436.72H106.51C103.96 433.5 101.26 430.1 98.5098 426.59L97.9998 426L97.7398 425.68L97.4798 426L88.4798 436.75H88.9798L81.2898 426L81.0598 425.69L80.8498 426L73.2798 436.81H73.5598L70.2798 432.89L69.4098 431.89L69.0798 431.53Z" fill="#F5F5F5"/>
<path d="M67.3298 417.52C67.3298 417.71 80.8598 417.86 97.5398 417.86C114.22 417.86 127.76 417.71 127.76 417.52C127.76 417.33 114.24 417.18 97.5398 417.18C80.8398 417.18 67.3298 417.33 67.3298 417.52Z" fill="#F5F5F5"/>
<path d="M64.5999 463.27C64.5999 463.45 79.2999 463.6 97.4399 463.6C115.58 463.6 130.28 463.45 130.28 463.27C130.28 463.09 115.58 462.93 97.4399 462.93C79.2999 462.93 64.5999 463.08 64.5999 463.27Z" fill="#F5F5F5"/>
<path d="M302.7 204.41L314.21 184.12C307.108 172.565 304.584 158.771 307.136 145.45C309.687 132.129 317.129 120.244 327.998 112.131C338.868 104.018 352.379 100.264 365.875 101.607C379.372 102.95 391.878 109.293 400.936 119.389C409.993 129.485 414.947 142.603 414.823 156.166C414.7 169.728 409.508 182.754 400.267 192.683C391.027 202.612 378.408 208.726 364.889 209.823C351.37 210.919 337.93 206.92 327.21 198.61L302.7 204.41Z" fill="#FAFAFA"/>
<path d="M159.49 245.36C159.49 245.36 149.71 250.94 145.97 256.75C142.23 262.56 119.05 339.41 119.05 339.41C116.83 333.66 115.45 325.97 114.37 317.55L92.24 318C92.24 318 88.87 343.7 88.87 349.51C88.87 355.32 88.63 409.64 109.82 412.96C131.01 416.28 148.47 383.46 151.82 372.66C155.17 361.86 167.61 332.04 167.61 332.04L159.49 245.36Z" fill="#A36957"/>
<path d="M112.93 263C113.068 262.171 112.989 261.321 112.7 260.532C112.411 259.743 111.921 259.043 111.28 258.5C110.729 258.039 110.091 257.691 109.405 257.476C108.718 257.262 107.996 257.185 107.28 257.25C103 257.55 94.4601 265.06 91.0701 266.09C87.6801 267.12 84.5801 270.37 85.0701 274.35C85.5601 278.33 91.2601 303.35 91.2601 303.35V324.56H113.26L114.26 318.08C114.26 318.08 118.09 313.51 119.26 310.08C120.43 306.65 119.26 295.5 119.26 295.5L123.98 294.17C123.98 294.17 127.07 290.63 127.98 287.39C128.89 284.15 127.54 281.5 124.29 281.79C124.29 281.79 125.47 276.34 125.03 274.87C124.59 273.4 123.41 271.48 119.43 272.21C119.43 272.21 121.49 265.88 118.84 263.81C117.996 263.213 117.023 262.822 116 262.669C114.977 262.516 113.932 262.606 112.95 262.93L112.93 263Z" fill="#A36957"/>
<path d="M112.86 285.39C114.649 284.435 116.546 283.696 118.51 283.19C120.42 282.515 122.404 282.072 124.42 281.87C122.534 282.579 120.611 283.187 118.66 283.69C116.758 284.358 114.822 284.925 112.86 285.39Z" fill="#894536"/>
<path d="M108.62 275.1C109.087 274.76 109.603 274.494 110.15 274.31C111.422 273.742 112.728 273.255 114.06 272.85C115.401 272.459 116.784 272.231 118.18 272.17C118.761 272.103 119.348 272.13 119.92 272.25C119.92 272.43 117.28 272.45 114.2 273.35C112.66 273.8 111.29 274.35 110.29 274.66C109.76 274.894 109.197 275.043 108.62 275.1Z" fill="#894536"/>
<path d="M89.2901 276.84C89.1927 276.453 89.1927 276.047 89.2901 275.66C89.5162 274.593 90.0003 273.597 90.7001 272.76C91.7544 271.555 93.0223 270.555 94.4401 269.81C95.9901 268.92 97.7301 268.02 99.6001 267.18C102.801 265.732 106.119 264.561 109.52 263.68C110.83 263.35 111.9 263.13 112.64 262.99C113.019 262.891 113.409 262.844 113.8 262.85C113.439 263.002 113.064 263.116 112.68 263.19C111.96 263.39 110.91 263.66 109.62 264.04C106.274 265.017 103 266.223 99.8201 267.65C96.1801 269.39 92.7301 271 91.0001 273C90.3089 273.778 89.7998 274.701 89.5101 275.7C89.3301 276.42 89.3301 276.84 89.2901 276.84Z" fill="#894536"/>
<path d="M99.2302 287.48C99.2302 287.48 98.5702 287.15 97.9602 286.18C97.557 285.547 97.2855 284.839 97.1619 284.099C97.0382 283.358 97.0649 282.601 97.2403 281.871C97.4158 281.141 97.7364 280.454 98.1831 279.851C98.6297 279.248 99.1933 278.741 99.8402 278.36C100.34 277.994 100.941 277.791 101.56 277.78C101.56 277.87 100.91 278.04 100.04 278.66C98.911 279.47 98.0981 280.647 97.7402 281.99C97.4426 283.345 97.6339 284.762 98.2802 285.99C98.7702 287 99.2902 287.41 99.2302 287.48Z" fill="#894536"/>
<path d="M108.88 295.65C108.88 295.65 108.32 295.34 107.8 294.49C107.123 293.365 106.864 292.037 107.07 290.74C107.296 289.445 107.964 288.268 108.96 287.41C109.339 287.023 109.828 286.762 110.36 286.66C110.36 286.74 109.87 287.02 109.21 287.66C108.35 288.51 107.782 289.611 107.588 290.804C107.394 291.997 107.584 293.221 108.13 294.3C108.53 295.15 108.94 295.59 108.88 295.65Z" fill="#894536"/>
<path d="M115.05 318.25C115.092 318.505 115.118 318.762 115.13 319.02C115.18 319.52 115.2 320.26 115.29 321.21C115.532 323.895 115.916 326.565 116.44 329.21C118.267 337.935 121.194 346.392 125.15 354.38C127.5 359.04 129.83 363.47 131.47 367.71C133.008 371.439 134.089 375.341 134.69 379.33C135.08 382.023 135.08 384.757 134.69 387.45C134.604 388.185 134.47 388.913 134.29 389.63C134.249 389.883 134.182 390.131 134.09 390.37C134.101 390.111 134.134 389.853 134.19 389.6C134.25 389.1 134.43 388.38 134.49 387.43C134.792 384.75 134.725 382.042 134.29 379.38C133.65 375.437 132.546 371.584 131 367.9C129.35 363.69 127 359.3 124.66 354.62C120.68 346.597 117.787 338.078 116.06 329.29C115.556 326.627 115.222 323.935 115.06 321.23C115 320.23 115.06 319.52 114.99 319.02C114.984 318.762 115.004 318.504 115.05 318.25Z" fill="#894536"/>
<path d="M159.49 245.36L206.37 229.2L263.07 228.63C264.07 228.63 325.67 249.63 329.65 252C333.63 254.37 315.59 327 315.59 327L324 428.46C324 428.46 338.24 461.22 326.35 470.9H315.25L172.18 470.73C171.9 449.37 178.4 393 178.4 393L164.8 331.3L159.49 245.36Z" fill="#CC6510"/>
<path d="M302.79 314.91H302.43H301.36L297.28 315.01L282.28 315.26L232.73 315.88L183.17 316.35L168.17 316.44H163H162.64C162.76 316.427 162.88 316.427 163 316.44H164.06L168.15 316.34L183.15 316.1L232.71 315.47L282.27 315L297.27 314.91H302.42H302.79Z" fill="white"/>
<g opacity="0.3">
<path d="M208.69 331.28C211.78 328.95 216.05 329.19 219.86 329.86C237.56 332.96 253.23 342.86 268.39 352.47C286.51 364 302.19 370.58 320.31 382.11L321.18 395.38C313.628 396.972 305.835 397.05 298.251 395.612C290.668 394.174 283.445 391.247 277 387C271.34 383.28 266.07 378.46 259.45 377C254 375.83 248.35 377.15 242.78 377.23C233.387 377.365 224.284 373.972 217.27 367.722C210.257 361.471 205.843 352.817 204.9 343.47C204.49 339.06 205.13 334 208.69 331.28Z" fill="black"/>
</g>
<path d="M305.66 339.21C305.66 339.08 316.26 342.36 329.23 346.56C342.2 350.76 352.69 354.26 352.64 354.4C352.59 354.54 342.05 351.25 329.07 347.05C316.09 342.85 305.62 339.35 305.66 339.21Z" fill="#894536"/>
<path d="M180 392.26C180.278 392.291 180.553 392.348 180.82 392.43L183.16 393.03L191.73 395.26C198.97 397.12 209 399.61 220.13 402.11C231.26 404.61 241.4 406.64 248.74 408.05L257.44 409.7L259.81 410.16C260.084 410.205 260.355 410.268 260.62 410.35C260.341 410.347 260.063 410.317 259.79 410.26L257.41 409.9C255.34 409.58 252.36 409.07 248.67 408.41C241.31 407.1 231.16 405.12 220.01 402.62C208.86 400.12 198.86 397.57 191.63 395.62C188.02 394.62 185.11 393.83 183.1 393.23L180.79 392.55C180.519 392.476 180.255 392.379 180 392.26Z" fill="#CC6510"/>
<path d="M163.2 244.08C163.2 244.08 148.6 247.33 142.63 261.63C136.25 276.9 119.05 326.1 119.05 326.1L164.89 354.32L169.35 331.56L163.2 244.08Z" fill="#CC6510"/>
<path d="M153.51 280.87C153.66 280.87 159.34 305.87 166.21 336.87C173.08 367.87 178.54 392.94 178.4 393C178.26 393.06 172.57 368 165.7 337C158.83 306 153.37 280.9 153.51 280.87Z" fill="#263238"/>
<path d="M194 408.54C194.085 408.578 194.165 408.625 194.24 408.68L194.9 409.13L197.4 410.89C198.47 411.67 199.8 412.61 201.4 413.65C203 414.69 204.72 415.94 206.73 417.2C208.74 418.46 210.91 419.89 213.31 421.31C215.71 422.73 218.31 424.24 221.01 425.8C226.5 428.8 232.63 432.01 239.21 435.03C245.79 438.05 252.21 440.58 258.11 442.73C261.11 443.73 263.87 444.73 266.54 445.6C269.21 446.47 271.68 447.22 273.96 447.88C276.24 448.54 278.32 449.09 280.14 449.58C281.96 450.07 283.53 450.47 284.82 450.77L287.82 451.51L288.59 451.71L288.85 451.8C288.761 451.815 288.669 451.815 288.58 451.8L287.8 451.65L284.8 451.01C283.5 450.74 281.91 450.38 280.08 449.9C278.25 449.42 276.16 448.9 273.88 448.27C271.6 447.64 269.09 446.92 266.43 446.06C263.77 445.2 260.94 444.25 257.96 443.23C252.05 441.09 245.62 438.54 239.01 435.54C232.4 432.54 226.28 429.33 220.79 426.26C218.07 424.69 215.47 423.26 213.11 421.72C210.75 420.18 208.54 418.86 206.55 417.54C204.56 416.22 202.81 415 201.25 413.93C199.69 412.86 198.39 411.93 197.33 411.09L194.88 409.25L194.26 408.76L194 408.54Z" fill="#263238"/>
<path d="M291.81 289.26C291.94 289.2 296.9 299.78 302.89 312.9C308.88 326.02 313.63 336.7 313.5 336.76C313.37 336.82 308.41 326.23 302.42 313.11C296.43 299.99 291.68 289.32 291.81 289.26Z" fill="#263238"/>
<g opacity="0.3">
<path d="M167.92 343C159.59 338.95 154.41 330 153.03 320.85C151.65 311.7 153.61 302.35 156.53 293.58L167.92 343Z" fill="black"/>
</g>
<g opacity="0.3">
<path d="M286.83 451.45C270.548 453.561 253.999 451.197 238.958 444.613C223.918 438.03 210.955 427.474 201.46 414.08C228.45 430.9 255.86 445.51 286.83 451.45Z" fill="black"/>
</g>
<path d="M256.38 323.63L323.61 345C323.61 345 309.17 316.11 303.26 301C299.26 290.85 303.76 257.71 324.26 255.27C324.26 255.27 328.16 256.08 333.88 263.98C339.6 271.88 371.35 327.26 371.35 327.26C371.35 327.26 384.99 352.17 389.7 362.35C396.7 377.54 387.06 401.27 359.7 406.1C338.21 409.89 253.58 360.1 253.58 360.1L256.38 323.63Z" fill="#A36957"/>
<path d="M369.21 310.75L320.11 343.06L297.49 297L303.49 265L320.49 250C329.18 248.3 337.01 257.61 341.38 265.3L369.21 310.75Z" fill="#CC6510"/>
<path d="M290.52 284.05C290.496 283.864 290.496 283.676 290.52 283.49C290.52 283.11 290.52 282.56 290.52 281.86C290.626 279.859 290.941 277.875 291.46 275.94C293.146 269.493 296.79 263.728 301.89 259.44C307.061 255.226 313.414 252.723 320.07 252.28C322.071 252.14 324.082 252.204 326.07 252.47C326.78 252.55 327.31 252.69 327.68 252.75C327.869 252.771 328.054 252.818 328.23 252.89C328.23 252.94 327.45 252.81 326.05 252.67C324.077 252.495 322.093 252.495 320.12 252.67C317.192 252.916 314.31 253.551 311.55 254.56C304.722 257.003 298.962 261.758 295.27 268C292.738 272.234 291.18 276.979 290.71 281.89C290.58 283.27 290.56 284.05 290.52 284.05Z" fill="#263238"/>
<path d="M243.7 313V284.19C243.7 282.959 243.212 281.777 242.342 280.906C241.472 280.034 240.292 279.543 239.06 279.54H207.21C205.977 279.54 204.794 280.03 203.922 280.902C203.05 281.774 202.56 282.957 202.56 284.19V344.89C202.563 346.122 203.054 347.302 203.926 348.172C204.797 349.041 205.979 349.53 207.21 349.53H239.06C240.291 349.53 241.471 349.041 242.341 348.171C243.211 347.301 243.7 346.121 243.7 344.89V313Z" fill="#263238"/>
<path d="M273.72 333C273.72 333 265.33 328.48 263.61 326.55C261.89 324.62 251.61 311.27 249.2 309.12C247.504 307.665 245.625 306.438 243.61 305.47V315.15C243.61 315.15 242.55 316.22 239.21 316.87C235.87 317.52 205.76 311.49 203.61 311.27C201.46 311.05 199.09 311.06 199.09 313.64C199.09 316.22 201.67 319.45 202.75 320.31C203.83 321.17 207.91 322.24 207.91 322.24C207.91 322.24 198.6 321.45 197.52 322.75C196.44 324.05 195.8 327.08 197.28 327.75C198.53 328.34 205.28 331.04 205.28 331.04C205.28 331.04 222.76 337.92 222.97 338.78C223.18 339.64 212.43 339.21 211.14 338.78C209.85 338.35 205.14 335.12 203.62 334.9C203.079 334.838 202.531 334.925 202.035 335.151C201.539 335.377 201.114 335.733 200.806 336.183C200.497 336.632 200.317 337.157 200.284 337.701C200.252 338.245 200.368 338.787 200.62 339.27C201.882 341.803 203.476 344.157 205.36 346.27C205.36 346.27 202.78 346.7 202.56 349.07C202.34 351.44 202.99 351.87 204.07 353.16C205.15 354.45 209.23 355.74 211.16 355.74C213.09 355.74 241.49 362.19 243.64 362.19C245.79 362.19 253.97 360.04 256.98 359.82C259.99 359.6 264.29 359.82 264.29 359.82L273.72 333Z" fill="#A36957"/>
<path d="M201.43 322C201.937 321.899 202.453 321.846 202.97 321.84C203.573 321.8 204.178 321.8 204.78 321.84H205.91L207.17 321.98C211.756 322.63 216.279 323.667 220.69 325.08C225.083 326.482 229.55 327.64 234.07 328.55L235.31 328.77L236.42 328.91C237.013 329.002 237.611 329.058 238.21 329.08C238.726 329.089 239.241 329.136 239.75 329.22C239.237 329.292 238.718 329.316 238.2 329.29C237.596 329.295 236.991 329.265 236.39 329.2L235.26 329.1L234 329C229.444 328.188 224.947 327.072 220.54 325.66C216.15 324.263 211.665 323.184 207.12 322.43L205.87 322.25L204.75 322.17C204.171 322.079 203.586 322.023 203 322C202.478 322.042 201.953 322.042 201.43 322Z" fill="#894536"/>
<path d="M229.39 338.88C231.165 340.064 233.169 340.865 235.271 341.23C237.374 341.595 239.53 341.517 241.6 341C241.05 341.336 240.438 341.557 239.8 341.65C236.732 342.306 233.529 341.751 230.86 340.1C230.288 339.804 229.786 339.388 229.39 338.88Z" fill="#894536"/>
<path d="M204.81 345.79C205.222 345.856 205.625 345.97 206.01 346.13C206.77 346.39 207.87 346.76 209.23 347.19C212.782 348.308 216.394 349.223 220.05 349.93C223.709 350.632 227.405 351.123 231.12 351.4C232.55 351.5 233.7 351.58 234.5 351.62C234.917 351.61 235.333 351.65 235.74 351.74C235.33 351.807 234.915 351.833 234.5 351.82C233.69 351.82 232.5 351.82 231.1 351.76C227.373 351.591 223.664 351.153 220 350.45C216.326 349.737 212.707 348.765 209.17 347.54C207.81 347.06 206.73 346.64 205.99 346.32C205.579 346.185 205.184 346.008 204.81 345.79Z" fill="#894536"/>
<path d="M219.56 289.3C219.56 289.775 219.701 290.239 219.965 290.633C220.228 291.028 220.603 291.336 221.042 291.517C221.48 291.699 221.963 291.747 222.428 291.654C222.894 291.561 223.321 291.333 223.657 290.997C223.993 290.661 224.221 290.234 224.314 289.768C224.407 289.303 224.359 288.82 224.177 288.382C223.996 287.943 223.688 287.568 223.293 287.305C222.899 287.041 222.435 286.9 221.96 286.9C221.324 286.9 220.713 287.153 220.263 287.603C219.813 288.053 219.56 288.663 219.56 289.3Z" fill="white"/>
<path d="M270.83 157C273.94 165 275.83 167 279.91 175.39C283.52 182.78 280.28 192.81 274.26 198.39C270.33 202 264.96 203.46 259.79 204.66C248.22 207.33 236.21 209.29 224.55 207.11C213.483 205.003 203.405 199.348 195.84 191C188.276 182.551 183.618 171.9 182.55 160.61" fill="#455A64"/>
<g opacity="0.3">
<path d="M270.83 157C273.94 165 275.83 167 279.91 175.39C283.52 182.78 280.28 192.81 274.26 198.39C270.33 202 264.96 203.46 259.79 204.66C248.22 207.33 236.21 209.29 224.55 207.11C213.483 205.003 203.405 199.348 195.84 191C188.276 182.551 183.618 171.9 182.55 160.61" fill="black"/>
</g>
<path d="M262.7 184.05C265.85 174.74 268.97 165.35 270.47 155.63C271.97 145.91 271.81 135.76 268.47 126.5C267.96 125.1 263.65 115.67 262.17 115.8C261.1 115.89 263.72 124.67 263.17 125.58C257.94 134.31 256.42 144.86 257.11 155C257.877 164.859 259.738 174.603 262.66 184.05" fill="#263238"/>
<path d="M235.15 266C242.483 265.946 249.502 263.017 254.698 257.843C259.895 252.669 262.854 245.663 262.94 238.33L264.13 146.58C265.23 121.94 251.81 100.76 227.13 100.34L224.85 100.43C213.778 100.884 203.283 105.49 195.454 113.333C187.625 121.175 183.036 131.677 182.6 142.75C181.77 164.11 181.12 187.75 181.73 199.14C183 222.77 206.8 225.47 206.8 225.47C206.8 225.47 206.86 230.96 206.85 237.9C206.837 241.611 207.561 245.287 208.981 248.716C210.401 252.144 212.488 255.256 215.121 257.871C217.754 260.485 220.881 262.551 224.32 263.946C227.758 265.342 231.439 266.04 235.15 266Z" fill="#A36957"/>
<path d="M206.82 225.44C206.82 225.44 221.76 225.7 237.23 215.07C237.23 215.07 230.43 232.58 206.75 231.42L206.82 225.44Z" fill="#894536"/>
<path d="M262.92 164.13C263.32 163.94 278.97 158.66 279.12 174.84C279.27 191.02 263 187.84 263 187.38C263 186.92 262.92 164.13 262.92 164.13Z" fill="#A36957"/>
<path d="M267.84 181.2C267.91 181.2 268.13 181.4 268.61 181.61C269.283 181.887 270.037 181.887 270.71 181.61C272.42 180.97 273.83 178.24 273.88 175.32C273.905 173.943 273.625 172.577 273.06 171.32C272.904 170.816 272.627 170.359 272.254 169.986C271.881 169.613 271.424 169.336 270.92 169.18C270.595 169.096 270.25 169.128 269.946 169.273C269.643 169.417 269.4 169.664 269.26 169.97C269.05 170.42 269.15 170.74 269.07 170.77C268.99 170.8 268.72 170.51 268.84 169.84C268.926 169.443 269.149 169.089 269.47 168.84C269.687 168.67 269.936 168.544 270.202 168.471C270.468 168.397 270.746 168.376 271.02 168.41C271.692 168.528 272.322 168.819 272.848 169.254C273.374 169.688 273.777 170.252 274.02 170.89C274.717 172.286 275.06 173.831 275.02 175.39C274.95 178.66 273.31 181.72 270.97 182.39C270.538 182.522 270.081 182.555 269.634 182.485C269.187 182.416 268.762 182.247 268.39 181.99C267.88 181.59 267.79 181.23 267.84 181.2Z" fill="#894536"/>
<path d="M193.08 115.9C190.46 114.45 198.32 105.97 204.76 103.04C214.48 98.6201 229.34 95.9001 238.31 98.4301C249.12 101.49 258.09 106.86 263.52 116.69C268.95 126.52 270.99 137.97 270.69 149.19C270.59 152.62 270.24 156.19 268.41 159.08C266.15 162.66 261.81 164.92 262.01 169.86C262.069 170.754 261.95 171.65 261.662 172.497C261.374 173.345 260.921 174.128 260.33 174.8C257.33 177.95 253.74 174.99 252.08 172.03C248.51 165.69 248.08 158.12 247.8 150.86C247.57 145.69 247.36 140.42 248.8 135.46C249.59 132.76 250.86 130.21 251.5 127.46C252.14 124.71 252.06 121.62 250.35 119.38C249.956 118.897 249.518 118.451 249.04 118.05C246.78 116.084 244.038 114.753 241.095 114.195C238.152 113.636 235.114 113.869 232.29 114.87C223.17 118.1 207.61 122.93 203.54 119.87C197.69 115.42 196.29 112.52 196.29 112.52L193.08 115.9Z" fill="#263238"/>
<path d="M182.55 140.5C182.55 140.5 185.26 132.38 187.95 128.04C190.64 123.7 199.38 120.04 201.29 119.39C203.2 118.74 224.97 118.87 240.43 122.05C255.89 125.23 270.18 157.42 270.18 157.42L271.92 148.5C271.92 148.5 270.35 131.26 270.35 127.37C270.35 123.48 263.79 110.62 262.06 108.65C260.33 106.68 243.71 97.3001 241.91 96.3801C240.11 95.4601 225.5 91.5401 218.5 92.9301C211.5 94.3201 193.66 102.66 189.72 105.85C185.78 109.04 184.66 110.02 182.54 113.85C180.42 117.68 182.55 140.5 182.55 140.5ZM199.55 113.24L199.76 110.15C199.9 108.1 208.5 97.1501 220.97 99.0001C233.44 100.85 237.18 115.8 237.18 115.8L199.55 113.24Z" fill="#455A64"/>
<path d="M199.94 119.39C199.94 119.31 199.56 119.15 199.18 118.63C198.945 118.286 198.79 117.894 198.726 117.482C198.662 117.07 198.691 116.649 198.81 116.25C199.071 115.415 199.496 114.64 200.06 113.97C200.49 113.43 200.76 113.08 200.7 112.97C200.64 112.86 200.28 113.16 199.76 113.66C199.053 114.306 198.534 115.132 198.26 116.05C198.113 116.528 198.092 117.036 198.199 117.525C198.306 118.014 198.537 118.467 198.87 118.84C199.42 119.44 199.94 119.46 199.94 119.39Z" fill="#263238"/>
<path d="M204.81 115.45C204.76 115.52 205 115.75 204.95 116.19C204.939 116.305 204.905 116.416 204.848 116.516C204.791 116.616 204.713 116.702 204.62 116.77C204.513 116.844 204.386 116.884 204.255 116.884C204.125 116.884 203.997 116.844 203.89 116.77C203.776 116.707 203.684 116.612 203.625 116.496C203.567 116.38 203.544 116.249 203.56 116.12C203.586 116.008 203.634 115.904 203.703 115.812C203.772 115.721 203.86 115.645 203.96 115.59C204.34 115.36 204.65 115.49 204.69 115.41C204.73 115.33 204.42 115.02 203.8 115.22C203.622 115.282 203.462 115.384 203.331 115.52C203.201 115.655 203.105 115.82 203.05 116C203.006 116.237 203.033 116.483 203.128 116.705C203.223 116.927 203.381 117.115 203.584 117.247C203.786 117.379 204.023 117.447 204.265 117.444C204.506 117.441 204.741 117.367 204.94 117.23C205.083 117.108 205.195 116.954 205.266 116.78C205.338 116.606 205.366 116.417 205.35 116.23C205.28 115.54 204.83 115.38 204.81 115.45Z" fill="#263238"/>
<path d="M212 115.88C212 115.95 212.19 116.18 212.13 116.62C212.12 116.735 212.087 116.847 212.032 116.948C211.976 117.05 211.901 117.139 211.81 117.21C211.695 117.269 211.566 117.296 211.437 117.289C211.309 117.281 211.184 117.24 211.076 117.169C210.968 117.098 210.881 116.999 210.824 116.884C210.767 116.768 210.741 116.639 210.75 116.51C210.775 116.398 210.823 116.293 210.892 116.202C210.961 116.11 211.049 116.035 211.15 115.98C211.53 115.75 211.84 115.88 211.88 115.8C211.92 115.72 211.61 115.41 210.99 115.61C210.811 115.67 210.65 115.772 210.519 115.908C210.389 116.044 210.293 116.209 210.24 116.39C210.195 116.627 210.221 116.871 210.315 117.093C210.408 117.315 210.566 117.504 210.767 117.637C210.968 117.769 211.204 117.839 211.444 117.838C211.685 117.837 211.92 117.765 212.12 117.63C212.264 117.509 212.378 117.355 212.451 117.181C212.524 117.007 212.554 116.818 212.54 116.63C212.42 116 212 115.81 212 115.88Z" fill="#263238"/>
<path d="M219.09 116.32C219.03 116.38 219.28 116.61 219.22 117.05C219.21 117.165 219.177 117.277 219.121 117.378C219.066 117.48 218.991 117.569 218.9 117.64C218.785 117.697 218.657 117.724 218.529 117.717C218.401 117.71 218.276 117.67 218.168 117.6C218.06 117.53 217.972 117.434 217.913 117.32C217.854 117.206 217.825 117.078 217.83 116.95C217.859 116.837 217.91 116.731 217.98 116.638C218.051 116.546 218.139 116.468 218.24 116.41C218.62 116.18 218.93 116.31 218.97 116.24C219.01 116.17 218.69 115.84 218.08 116.04C217.9 116.102 217.737 116.206 217.604 116.343C217.472 116.481 217.375 116.647 217.32 116.83C217.268 116.998 217.254 117.175 217.279 117.348C217.304 117.522 217.368 117.687 217.465 117.833C217.562 117.979 217.691 118.102 217.841 118.192C217.992 118.282 218.16 118.337 218.335 118.354C218.509 118.371 218.685 118.348 218.85 118.288C219.015 118.229 219.164 118.133 219.287 118.008C219.411 117.883 219.504 117.732 219.562 117.566C219.619 117.401 219.639 117.224 219.62 117.05C219.56 116.41 219.1 116.24 219.09 116.32Z" fill="#263238"/>
<path d="M226.23 116.75C226.17 116.81 226.41 117.04 226.36 117.48C226.348 117.596 226.313 117.708 226.256 117.809C226.2 117.911 226.123 117.999 226.03 118.07C225.921 118.141 225.795 118.178 225.665 118.178C225.536 118.178 225.409 118.141 225.3 118.07C225.187 118.006 225.096 117.91 225.037 117.795C224.979 117.679 224.955 117.549 224.97 117.42C224.999 117.307 225.05 117.201 225.12 117.108C225.191 117.016 225.279 116.938 225.38 116.88C225.76 116.66 226.07 116.78 226.1 116.71C226.13 116.64 225.83 116.31 225.21 116.52C225.058 116.583 224.921 116.678 224.809 116.798C224.696 116.918 224.611 117.06 224.558 117.216C224.504 117.372 224.485 117.537 224.5 117.7C224.516 117.864 224.566 118.023 224.647 118.166C224.729 118.309 224.84 118.433 224.973 118.529C225.106 118.626 225.258 118.693 225.419 118.727C225.58 118.76 225.746 118.759 225.907 118.724C226.067 118.688 226.218 118.619 226.35 118.52C226.493 118.398 226.605 118.244 226.676 118.07C226.748 117.896 226.776 117.707 226.76 117.52C226.7 116.84 226.24 116.67 226.23 116.75Z" fill="#263238"/>
<path d="M233.36 117.18C233.31 117.24 233.55 117.48 233.5 117.92C233.487 118.034 233.451 118.144 233.394 118.244C233.338 118.344 233.261 118.431 233.17 118.5C233.056 118.558 232.928 118.585 232.8 118.578C232.672 118.572 232.548 118.531 232.441 118.461C232.333 118.391 232.246 118.294 232.188 118.18C232.13 118.066 232.103 117.938 232.11 117.81C232.136 117.698 232.186 117.592 232.254 117.499C232.323 117.406 232.41 117.328 232.51 117.27C232.89 117.05 233.2 117.18 233.24 117.1C233.28 117.02 232.97 116.71 232.35 116.91C232.198 116.973 232.061 117.068 231.949 117.188C231.836 117.308 231.751 117.45 231.697 117.606C231.644 117.762 231.625 117.927 231.64 118.091C231.656 118.254 231.706 118.413 231.787 118.556C231.869 118.699 231.98 118.823 232.113 118.919C232.246 119.016 232.398 119.084 232.559 119.117C232.72 119.151 232.886 119.149 233.047 119.114C233.207 119.078 233.358 119.009 233.49 118.91C233.632 118.787 233.743 118.633 233.814 118.459C233.885 118.285 233.915 118.097 233.9 117.91C233.83 117.27 233.38 117.11 233.36 117.18Z" fill="#263238"/>
<path d="M220.53 99.7701C219.21 99.7101 218.59 97.8601 217.27 97.8701C216.604 97.8747 215.952 98.0546 215.378 98.3917C214.804 98.7287 214.328 99.2111 214 99.7901C213.761 99.1732 213.33 98.6497 212.77 98.297C212.211 97.9442 211.552 97.781 210.893 97.8315C210.233 97.882 209.607 98.1435 209.108 98.5772C208.609 99.011 208.262 99.5941 208.12 100.24C207.143 99.7868 206.035 99.7015 205 100C204 100.41 203.52 101.94 204.4 102.55C203.773 102.135 203.046 101.896 202.295 101.858C201.544 101.819 200.796 101.982 200.13 102.33C198.87 103.14 198.52 105.25 199.73 106.13C199.005 105.793 198.187 105.716 197.412 105.913C196.638 106.109 195.955 106.567 195.479 107.209C195.003 107.851 194.763 108.637 194.799 109.435C194.836 110.233 195.147 110.995 195.68 111.59C195.904 111.885 196.234 112.082 196.6 112.14C197.27 112.14 197.75 111.47 197.87 110.81C197.901 110.133 198.012 109.461 198.2 108.81C198.47 108.2 199.32 107.81 199.81 108.23C199.15 109.34 198.51 110.84 199.35 111.84C199.93 112.52 200.52 113.33 201.41 113.35C206.5 113.46 232.13 115.68 237.22 115.79C237.23 115.8 232.76 100.31 220.53 99.7701Z" fill="#263238"/>
<path d="M268.78 154.62C268.93 155.98 270.37 156.82 271.71 157.11C273.05 157.4 274.49 157.37 275.71 158.01C276.93 158.65 277.71 160.37 276.84 161.41C276.1 162.27 274.74 162.12 273.65 161.78C271.212 160.98 269.007 159.593 267.231 157.741C265.454 155.889 264.159 153.629 263.46 151.16C261.68 152.35 259.12 151.39 257.84 149.67C256.56 147.95 256.23 145.74 255.94 143.67C253.153 143.689 250.469 142.615 248.465 140.678C246.461 138.742 245.296 136.096 245.22 133.31C245.22 130.23 246.68 127.05 245.57 124.18C245.57 124.18 252.95 129.59 256.57 134.6C260.19 139.61 268.78 154.62 268.78 154.62Z" fill="#263238"/>
<path d="M275.09 161.38C275.258 161.38 275.424 161.414 275.579 161.481C275.733 161.548 275.872 161.646 275.986 161.769C276.101 161.892 276.189 162.037 276.244 162.196C276.3 162.354 276.322 162.522 276.31 162.69C276.262 163.029 276.122 163.348 275.905 163.612C275.688 163.877 275.403 164.076 275.08 164.19C274.435 164.4 273.75 164.455 273.08 164.35C271.034 164.115 269.084 163.354 267.42 162.14C267.021 162.79 266.428 163.299 265.725 163.595C265.022 163.891 264.244 163.959 263.5 163.79C262.76 163.594 262.073 163.238 261.485 162.747C260.898 162.256 260.425 161.643 260.1 160.95C259.465 159.559 259.17 158.037 259.24 156.51C258.533 156.966 257.704 157.194 256.863 157.164C256.023 157.133 255.212 156.846 254.54 156.34C253.21 155.295 252.344 153.768 252.13 152.09C251.927 150.424 251.994 148.735 252.33 147.09C251.11 148.26 248.85 147.48 248.14 145.94C247.852 145.14 247.764 144.283 247.883 143.441C248.001 142.599 248.323 141.799 248.82 141.11C248.286 140.905 247.799 140.592 247.392 140.19C246.984 139.788 246.665 139.306 246.452 138.774C246.24 138.243 246.14 137.673 246.159 137.101C246.177 136.529 246.314 135.967 246.56 135.45C246.293 135.601 245.998 135.698 245.693 135.734C245.388 135.77 245.079 135.745 244.784 135.661C244.489 135.576 244.214 135.433 243.974 135.241C243.735 135.048 243.536 134.81 243.39 134.54C242.854 133.407 242.772 132.112 243.16 130.92C243.55 129.74 243.854 128.534 244.07 127.31C244.146 126.465 244.05 125.614 243.787 124.808C243.524 124.002 243.099 123.257 242.54 122.62C245.565 123.286 248.314 124.859 250.42 127.13C252.503 129.393 254.349 131.862 255.93 134.5L269.58 155.58" fill="#263238"/>
<path d="M243.3 122.85C243.575 123.119 243.81 123.426 244 123.76C244.448 124.747 244.523 125.863 244.21 126.9C243.998 127.65 243.738 128.385 243.43 129.1C243.04 129.958 242.774 130.867 242.64 131.8C242.544 132.351 242.573 132.917 242.726 133.455C242.878 133.994 243.149 134.491 243.52 134.91C243.968 135.345 244.549 135.617 245.17 135.68C245.508 135.733 245.853 135.698 246.174 135.579C246.494 135.46 246.778 135.26 247 135L246.58 134.76C246.289 135.643 246.202 136.58 246.325 137.501C246.448 138.423 246.778 139.304 247.29 140.08C247.809 140.961 248.536 141.702 249.408 142.237C250.28 142.772 251.269 143.086 252.29 143.15L252.03 142.78C251.381 144.727 251.454 146.842 252.234 148.74C253.014 150.638 254.45 152.192 256.28 153.12L256.12 152.9C256.263 154.218 256.538 155.517 256.94 156.78C257.306 158.016 257.997 159.131 258.94 160.01C259.902 160.789 261.113 161.194 262.35 161.15C262.93 161.155 263.501 161.01 264.009 160.73C264.517 160.449 264.945 160.043 265.25 159.55H264.85C265.722 161.273 267.227 162.592 269.05 163.23C270.429 163.703 271.919 163.741 273.32 163.34C274.206 163.094 275.035 162.676 275.76 162.11C275.95 161.969 276.128 161.812 276.29 161.64C276.4 161.52 276.46 161.46 276.45 161.45C276.44 161.44 276.19 161.65 275.68 162C274.946 162.507 274.126 162.876 273.26 163.09C271.91 163.433 270.488 163.36 269.18 162.88C267.467 162.253 266.062 160.988 265.26 159.35L265.07 158.96L264.86 159.33C264.583 159.747 264.207 160.087 263.765 160.321C263.323 160.555 262.83 160.675 262.33 160.67C261.22 160.699 260.137 160.326 259.28 159.62C258.405 158.803 257.763 157.767 257.42 156.62C257.045 155.387 256.787 154.122 256.65 152.84V152.69L256.51 152.62C254.8 151.758 253.455 150.311 252.721 148.542C251.987 146.773 251.912 144.8 252.51 142.98L252.64 142.62H252.25C251.325 142.557 250.43 142.27 249.641 141.784C248.852 141.298 248.193 140.627 247.72 139.83C247.246 139.13 246.935 138.333 246.81 137.497C246.686 136.661 246.75 135.808 247 135L247.46 133.71L246.58 134.76C246.191 135.108 245.682 135.29 245.161 135.268C244.639 135.245 244.148 135.02 243.79 134.64C243.463 134.268 243.223 133.829 243.087 133.354C242.95 132.878 242.92 132.378 243 131.89C243.21 129.98 244.18 128.44 244.45 127.02C244.753 125.921 244.624 124.748 244.09 123.74C243.923 123.37 243.648 123.06 243.3 122.85Z" fill="#455A64"/>
<path d="M200.09 108.19C200.006 107.878 200.031 107.546 200.16 107.25C200.234 107.085 200.351 106.943 200.499 106.839C200.646 106.735 200.82 106.673 201 106.66C201.237 106.653 201.469 106.724 201.662 106.861C201.855 106.998 201.998 107.194 202.07 107.42L202.39 107.36C202.317 106.663 202.452 105.96 202.78 105.34C203.108 104.72 203.612 104.212 204.23 103.88C205.033 103.504 205.951 103.455 206.789 103.745C207.628 104.034 208.32 104.639 208.72 105.43L209.08 105.07C208.914 104.941 208.802 104.755 208.765 104.548C208.728 104.342 208.769 104.128 208.88 103.95C209.01 103.741 209.189 103.566 209.401 103.443C209.614 103.319 209.854 103.249 210.1 103.24C211.27 103.173 212.438 103.397 213.5 103.89C215.276 104.692 216.698 106.114 217.5 107.89L217.87 107.54C217.687 107.427 217.54 107.262 217.45 107.067C217.359 106.871 217.328 106.653 217.36 106.44C217.373 106.219 217.435 106.003 217.543 105.81C217.65 105.616 217.799 105.448 217.98 105.32C218.748 104.839 219.663 104.647 220.56 104.78C222.112 104.897 223.596 105.463 224.83 106.41C225.931 107.282 226.831 108.38 227.47 109.63C227.47 109.63 227.47 109.53 227.4 109.34C227.306 109.075 227.192 108.818 227.06 108.57C226.561 107.636 225.881 106.81 225.06 106.14C223.795 105.102 222.249 104.465 220.62 104.31C219.603 104.148 218.562 104.362 217.69 104.91C217.449 105.081 217.248 105.303 217.103 105.561C216.957 105.818 216.871 106.105 216.85 106.4C216.806 106.719 216.857 107.045 216.998 107.335C217.138 107.625 217.362 107.867 217.64 108.03L218.33 108.38L218.02 107.67C217.166 105.777 215.647 104.265 213.75 103.42C212.595 102.881 211.321 102.646 210.05 102.74C209.713 102.754 209.385 102.853 209.097 103.028C208.808 103.203 208.568 103.448 208.4 103.74C208.247 104.05 208.198 104.4 208.26 104.74C208.288 104.918 208.356 105.088 208.46 105.235C208.564 105.383 208.701 105.504 208.86 105.59L209.59 105.96L209.22 105.24C208.826 104.426 208.153 103.781 207.324 103.421C206.495 103.06 205.564 103.009 204.7 103.277C203.837 103.544 203.097 104.112 202.617 104.878C202.136 105.643 201.946 106.556 202.08 107.45L202.4 107.38C202.306 107.09 202.117 106.84 201.862 106.671C201.608 106.502 201.304 106.424 201 106.45C200.777 106.473 200.564 106.558 200.388 106.696C200.211 106.834 200.076 107.019 200 107.23C199.76 107.87 200.09 108.22 200.09 108.19Z" fill="#455A64"/>
<path d="M182.49 139.6C182.534 141.083 182.048 142.533 181.12 143.69C180.12 145.02 178.69 146.12 177.95 147.64C177.21 149.16 177.46 151.4 179.03 152.04C178.391 152.931 177.978 153.964 177.827 155.05C177.675 156.136 177.79 157.243 178.161 158.275C178.532 159.307 179.148 160.233 179.956 160.975C180.764 161.716 181.74 162.25 182.8 162.53C183.14 155.41 182.98 145.46 183.02 138.33" fill="#263238"/>
<path d="M159.06 304.19C159.01 304.32 152.7 302.12 144.96 299.27C137.22 296.42 130.96 294 131.05 293.86C131.14 293.72 137.41 295.93 145.14 298.78C152.87 301.63 159.11 304.05 159.06 304.19Z" fill="white"/>
<path d="M346.73 274.16C346.81 274.29 336.15 281.07 322.92 289.32C309.69 297.57 298.92 304.16 298.84 304.03C298.76 303.9 309.42 297.13 322.65 288.88C335.88 280.63 346.65 274 346.73 274.16Z" fill="white"/>
<path d="M460.47 470.9C460.47 471.04 366.23 471.16 250.01 471.16C133.79 471.16 39.53 471 39.53 470.9C39.53 470.8 133.75 470.64 250.01 470.64C366.27 470.64 460.47 470.75 460.47 470.9Z" fill="#263238"/>
<mask id="mask0_8_450" style="mask-type:luminance" maskUnits="userSpaceOnUse" x="316" y="113" width="86" height="86">
<path d="M316 113H402V199H316V113Z" fill="white"/>
</mask>
<g mask="url(#mask0_8_450)">
<path d="M359 113C335.294 113 316 132.294 316 156C316 179.706 335.294 199 359 199C382.706 199 402 179.706 402 156C402 132.278 382.706 113 359 113ZM318.351 156C318.351 133.583 336.583 115.351 359 115.351C378.922 115.351 395.543 129.749 398.988 148.688C393.916 149.027 384.623 153.005 382.159 154.196C381.885 154.325 381.531 154.503 381.129 154.712C381.129 154.663 381.129 154.631 381.129 154.583C381.129 142.391 371.208 132.471 359.017 132.471C346.825 132.471 336.905 142.391 336.905 154.583C336.905 154.825 336.905 155.05 336.92 155.292C334.505 156.049 331.944 157.015 329.432 158.142C323.908 160.574 320.381 161.331 318.771 161.557C318.481 159.737 318.351 157.884 318.351 156ZM378.761 154.583C378.761 155.034 378.745 155.469 378.713 155.919C376.763 156.902 374.171 158.191 371.208 159.64C370.901 159.511 370.579 159.383 370.274 159.253C357.325 153.923 351.077 153.31 346.246 153.44C344.329 153.488 341.897 153.923 339.239 154.631C339.239 154.615 339.239 154.615 339.239 154.599C339.239 143.696 348.097 134.839 359 134.839C369.887 134.822 378.761 143.681 378.761 154.583ZM319.125 163.876C320.977 163.602 324.697 162.781 330.35 160.284C336.244 157.643 342.509 155.872 346.31 155.759C350.755 155.629 356.52 156.194 368.358 160.992C362.495 163.811 355.73 166.919 350.046 169.078C339.755 172.991 325.325 172.846 321.96 172.749C320.687 169.947 319.737 166.967 319.125 163.876ZM359 196.633C353.364 196.633 348 195.474 343.104 193.396C344.506 192.43 346.438 190.932 348.065 189.16C350.899 186.067 361.963 177.967 372.561 179.32C380.532 180.335 386.669 182.01 389.455 182.863C381.998 191.302 371.112 196.633 359 196.633ZM391.081 180.898C388.826 180.173 382.111 178.176 372.851 176.984C361.319 175.503 349.369 184.232 346.31 187.566C344.313 189.757 341.704 191.511 340.593 192.219C333.168 188.435 327.064 182.445 323.135 175.117C323.602 175.117 324.133 175.133 324.729 175.133C330.495 175.133 341.961 174.65 350.867 171.267C357.325 168.803 364.926 165.277 371.272 162.201C375.427 163.956 379.357 165.727 382.9 167.338C388.472 169.866 393.046 171.928 396.025 172.765C394.688 175.664 393.03 178.402 391.081 180.898ZM383.866 165.181C380.854 163.827 377.553 162.329 374.075 160.832C376.249 159.769 378.197 158.786 379.824 157.981C381.306 157.24 382.465 156.661 383.173 156.322C387.828 154.1 395.767 151.153 399.343 151.024C399.536 152.651 399.649 154.309 399.649 156C399.649 161.137 398.683 166.05 396.943 170.575C394.221 169.866 389.374 167.677 383.866 165.181Z" fill="#CC6510"/>
</g>
</svg>
